<svg viewBox="0 0 1707.2222900390625 400.0000305175781" xmlns="http://www.w3.org/2000/svg"><g><g><g><g><g><line x1="50" y1="351.650303091357" x2="45" y2="351.650303091357" style="visibility: inherit;" fill="rgb(0, 0, 0)" stroke="rgb(204, 204, 204)" stroke-width="1px"></line><line x1="50" y1="323.9858294071464" x2="45" y2="323.9858294071464" style="visibility: inherit;" fill="rgb(0, 0, 0)" stroke="rgb(204, 204, 204)" stroke-width="1px"></line><line x1="50" y1="296.3213557229359" x2="45" y2="296.3213557229359" style="visibility: inherit;" fill="rgb(0, 0, 0)" stroke="rgb(204, 204, 204)" stroke-width="1px"></line><line x1="50" y1="268.65688203872537" x2="45" y2="268.65688203872537" style="visibility: inherit;" fill="rgb(0, 0, 0)" stroke="rgb(204, 204, 204)" stroke-width="1px"></line><line x1="50" y1="240.9924083545148" x2="45" y2="240.9924083545148" style="visibility: inherit;" fill="rgb(0, 0, 0)" stroke="rgb(204, 204, 204)" stroke-width="1px"></line><line x1="50" y1="213.32793467030424" x2="45" y2="213.32793467030424" style="visibility: inherit;" fill="rgb(0, 0, 0)" stroke="rgb(204, 204, 204)" stroke-width="1px"></line><line x1="50" y1="185.66346098609372" x2="45" y2="185.66346098609372" style="visibility: inherit;" fill="rgb(0, 0, 0)" stroke="rgb(204, 204, 204)" stroke-width="1px"></line><line x1="50" y1="157.99898730188315" x2="45" y2="157.99898730188315" style="visibility: inherit;" fill="rgb(0, 0, 0)" stroke="rgb(204, 204, 204)" stroke-width="1px"></line><line x1="50" y1="130.33451361767263" x2="45" y2="130.33451361767263" style="visibility: inherit;" fill="rgb(0, 0, 0)" stroke="rgb(204, 204, 204)" stroke-width="1px"></line><line x1="50" y1="102.67003993346208" x2="45" y2="102.67003993346208" style="visibility: inherit;" fill="rgb(0, 0, 0)" stroke="rgb(204, 204, 204)" stroke-width="1px"></line><line x1="50" y1="75.00556624925156" x2="45" y2="75.00556624925156" style="visibility: inherit;" fill="rgb(0, 0, 0)" stroke="rgb(204, 204, 204)" stroke-width="1px"></line><line x1="50" y1="47.341092565040995" x2="45" y2="47.341092565040995" style="visibility: inherit;" fill="rgb(0, 0, 0)" stroke="rgb(204, 204, 204)" stroke-width="1px"></line><line x1="50" y1="19.67661888083047" x2="45" y2="19.67661888083047" style="visibility: inherit;" fill="rgb(0, 0, 0)" stroke="rgb(204, 204, 204)" stroke-width="1px"></line></g><g transform="translate(40, 0)"><text x="0" y="351.650303091357" dx="0em" dy="0.3em" style="text-anchor: end; visibility: inherit; font-family: Roboto, sans-serif; font-size: 12px; font-weight: 200;" fill="rgb(33, 33, 33)" stroke="none" stroke-width="1px">-350</text><text x="0" y="323.9858294071464" dx="0em" dy="0.3em" style="text-anchor: end; visibility: inherit; font-family: Roboto, sans-serif; font-size: 12px; font-weight: 200;" fill="rgb(33, 33, 33)" stroke="none" stroke-width="1px">-300</text><text x="0" y="296.3213557229359" dx="0em" dy="0.3em" style="text-anchor: end; visibility: inherit; font-family: Roboto, sans-serif; font-size: 12px; font-weight: 200;" fill="rgb(33, 33, 33)" stroke="none" stroke-width="1px">-250</text><text x="0" y="268.65688203872537" dx="0em" dy="0.3em" style="text-anchor: end; visibility: inherit; font-family: Roboto, sans-serif; font-size: 12px; font-weight: 200;" fill="rgb(33, 33, 33)" stroke="none" stroke-width="1px">-200</text><text x="0" y="240.9924083545148" dx="0em" dy="0.3em" style="text-anchor: end; visibility: inherit; font-family: Roboto, sans-serif; font-size: 12px; font-weight: 200;" fill="rgb(33, 33, 33)" stroke="none" stroke-width="1px">-150</text><text x="0" y="213.32793467030424" dx="0em" dy="0.3em" style="text-anchor: end; visibility: inherit; font-family: Roboto, sans-serif; font-size: 12px; font-weight: 200;" fill="rgb(33, 33, 33)" stroke="none" stroke-width="1px">-100</text><text x="0" y="185.66346098609372" dx="0em" dy="0.3em" style="text-anchor: end; visibility: inherit; font-family: Roboto, sans-serif; font-size: 12px; font-weight: 200;" fill="rgb(33, 33, 33)" stroke="none" stroke-width="1px">-50</text><text x="0" y="157.99898730188315" dx="0em" dy="0.3em" style="text-anchor: end; visibility: inherit; font-family: Roboto, sans-serif; font-size: 12px; font-weight: 200;" fill="rgb(33, 33, 33)" stroke="none" stroke-width="1px">0</text><text x="0" y="130.33451361767263" dx="0em" dy="0.3em" style="text-anchor: end; visibility: inherit; font-family: Roboto, sans-serif; font-size: 12px; font-weight: 200;" fill="rgb(33, 33, 33)" stroke="none" stroke-width="1px">50</text><text x="0" y="102.67003993346208" dx="0em" dy="0.3em" style="text-anchor: end; visibility: inherit; font-family: Roboto, sans-serif; font-size: 12px; font-weight: 200;" fill="rgb(33, 33, 33)" stroke="none" stroke-width="1px">100</text><text x="0" y="75.00556624925156" dx="0em" dy="0.3em" style="text-anchor: end; visibility: inherit; font-family: Roboto, sans-serif; font-size: 12px; font-weight: 200;" fill="rgb(33, 33, 33)" stroke="none" stroke-width="1px">150</text><text x="0" y="47.341092565040995" dx="0em" dy="0.3em" style="text-anchor: end; visibility: inherit; font-family: Roboto, sans-serif; font-size: 12px; font-weight: 200;" fill="rgb(33, 33, 33)" stroke="none" stroke-width="1px">200</text><text x="0" y="19.67661888083047" dx="0em" dy="0.3em" style="text-anchor: end; visibility: inherit; font-family: Roboto, sans-serif; font-size: 12px; font-weight: 200;" fill="rgb(33, 33, 33)" stroke="none" stroke-width="1px">250</text></g><line x1="50" y1="0" x2="50" y2="377" fill="rgb(0, 0, 0)" stroke="rgb(204, 204, 204)" stroke-width="1px"></line></g></g><g transform="translate(50, 0)" clip-path="url(#clip_0)"><clipPath id="clip_0"><rect width="1657" height="376"></rect></clipPath><g><g><g><line x1="0.09156330941849118" y1="0" x2="0.09156330941849118" y2="377" fill="rgb(0, 0, 0)" stroke="rgb(66, 66, 66)" stroke-width="1px" opacity="0.25"></line><line x1="204.80072612993118" y1="0" x2="204.80072612993118" y2="377" fill="rgb(0, 0, 0)" stroke="rgb(66, 66, 66)" stroke-width="1px" opacity="0.25"></line><line x1="409.5098889504439" y1="0" x2="409.5098889504439" y2="377" fill="rgb(0, 0, 0)" stroke="rgb(66, 66, 66)" stroke-width="1px" opacity="0.25"></line><line x1="614.2190517709566" y1="0" x2="614.2190517709566" y2="377" fill="rgb(0, 0, 0)" stroke="rgb(66, 66, 66)" stroke-width="1px" opacity="0.25"></line><line x1="818.9282145914693" y1="0" x2="818.9282145914693" y2="377" fill="rgb(0, 0, 0)" stroke="rgb(66, 66, 66)" stroke-width="1px" opacity="0.25"></line><line x1="1023.637377411982" y1="0" x2="1023.637377411982" y2="377" fill="rgb(0, 0, 0)" stroke="rgb(66, 66, 66)" stroke-width="1px" opacity="0.25"></line><line x1="1228.3465402324946" y1="0" x2="1228.3465402324946" y2="377" fill="rgb(0, 0, 0)" stroke="rgb(66, 66, 66)" stroke-width="1px" opacity="0.25"></line><line x1="1433.0557030530074" y1="0" x2="1433.0557030530074" y2="377" fill="rgb(0, 0, 0)" stroke="rgb(66, 66, 66)" stroke-width="1px" opacity="0.25"></line><line x1="1637.76486587352" y1="0" x2="1637.76486587352" y2="377" fill="rgb(0, 0, 0)" stroke="rgb(66, 66, 66)" stroke-width="1px" opacity="0.25"></line></g><g><line x1="0" y1="351.650303091357" x2="1657.22" y2="351.650303091357" fill="rgb(0, 0, 0)" stroke="rgb(66, 66, 66)" stroke-width="1px" opacity="0.25"></line><line x1="0" y1="323.9858294071464" x2="1657.22" y2="323.9858294071464" fill="rgb(0, 0, 0)" stroke="rgb(66, 66, 66)" stroke-width="1px" opacity="0.25"></line><line x1="0" y1="296.3213557229359" x2="1657.22" y2="296.3213557229359" fill="rgb(0, 0, 0)" stroke="rgb(66, 66, 66)" stroke-width="1px" opacity="0.25"></line><line x1="0" y1="268.65688203872537" x2="1657.22" y2="268.65688203872537" fill="rgb(0, 0, 0)" stroke="rgb(66, 66, 66)" stroke-width="1px" opacity="0.25"></line><line x1="0" y1="240.9924083545148" x2="1657.22" y2="240.9924083545148" fill="rgb(0, 0, 0)" stroke="rgb(66, 66, 66)" stroke-width="1px" opacity="0.25"></line><line x1="0" y1="213.32793467030424" x2="1657.22" y2="213.32793467030424" fill="rgb(0, 0, 0)" stroke="rgb(66, 66, 66)" stroke-width="1px" opacity="0.25"></line><line x1="0" y1="185.66346098609372" x2="1657.22" y2="185.66346098609372" fill="rgb(0, 0, 0)" stroke="rgb(66, 66, 66)" stroke-width="1px" opacity="0.25"></line><line x1="0" y1="157.99898730188315" x2="1657.22" y2="157.99898730188315" fill="rgb(0, 0, 0)" stroke="rgb(66, 66, 66)" stroke-width="1px" opacity="0.25"></line><line x1="0" y1="130.33451361767263" x2="1657.22" y2="130.33451361767263" fill="rgb(0, 0, 0)" stroke="rgb(66, 66, 66)" stroke-width="1px" opacity="0.25"></line><line x1="0" y1="102.67003993346208" x2="1657.22" y2="102.67003993346208" fill="rgb(0, 0, 0)" stroke="rgb(66, 66, 66)" stroke-width="1px" opacity="0.25"></line><line x1="0" y1="75.00556624925156" x2="1657.22" y2="75.00556624925156" fill="rgb(0, 0, 0)" stroke="rgb(66, 66, 66)" stroke-width="1px" opacity="0.25"></line><line x1="0" y1="47.341092565040995" x2="1657.22" y2="47.341092565040995" fill="rgb(0, 0, 0)" stroke="rgb(66, 66, 66)" stroke-width="1px" opacity="0.25"></line><line x1="0" y1="19.67661888083047" x2="1657.22" y2="19.67661888083047" fill="rgb(0, 0, 0)" stroke="rgb(66, 66, 66)" stroke-width="1px" opacity="0.25"></line></g></g></g><g><g><line x1="0" y1="157.99898730188315" x2="1657.22" y2="157.99898730188315" fill="rgb(0, 0, 0)" stroke="rgb(153, 153, 153)" stroke-width="1.5px"></line></g></g><g><g><line x1="409.5098889504439" y1="0" x2="409.5098889504439" y2="377" fill="rgb(0, 0, 0)" stroke="rgb(153, 153, 153)" stroke-width="1.5px"></line></g></g><g><g><g><g><g><path stroke="rgb(238, 51, 119)" stroke-width="2px" d="M410.5334347645464,248.58935751022187L411.556980578649,267.42201361139854L412.58052639275155,295.828816436348L413.60407220685414,266.2444168376885L414.62761802095673,236.51144199964673L415.6511638350592,230.0938773169569L416.67470964916185,236.88213736951639L417.69825546326445,212.4860862614493L418.7218012773669,191.90845935074088L419.74534709146957,177.21981948783426L420.76889290557205,173.7759989245585L421.79243871967464,174.4071496415789L422.81598453377717,161.21455462755728L423.83953034787976,151.7316778976972L424.8630761619823,146.38182404504172L425.8866219760849,142.33138298738743L426.9101677901875,140.22180397129827L427.93371360429,226.49544875497443L428.9572594183926,226.16993417671995L429.98080523249513,197.64403349896244L431.0043510465977,164.7699236480437L432.02789686070025,181.16242752558605L433.05144267480284,173.48193725924358L434.07498848890543,169.37796955412156L435.09853430300797,159.59117222164636L436.12208011711056,167.89769610580564L437.1456259312131,167.25407512498174L438.1691717453157,155.9773578350271L439.1927175594182,149.11259058929804L440.2162633735208,158.7155519208335L441.2398091876234,188.88100472373878L442.2633550017259,187.04142366594428L443.2869008158285,161.01741000209518L444.310446629931,145.12932455854664L445.33399244403364,144.8071600829257L446.3575382581361,160.84955551569897L447.38108407223876,151.80876800500235L448.40462988634124,136.0906317153555L449.42817570044383,139.24043239957166L450.4517215145465,181.146927187286L451.47526732864895,178.21317176149262L452.49881314275154,166.54823572796136L453.5223589568541,158.87166968841936L454.54590477095667,149.59915683195078L455.5694505850592,148.0250016429146L456.5929963991618,189.75065353592902L457.6165422132644,187.07912533422217L458.6400880273669,159.0923648200761L459.6636338414695,141.00927216112066L460.68717965557204,148.8341838973784L461.7107254696746,166.4230047142859L462.73427128377716,144.8281390686172L463.75781709787975,135.07407817446438L464.7813629119823,118.6666436437002L465.8049087260849,116.5058672301474L466.82845454018747,118.07644484105663L467.85200035429,111.87620894388395L468.8755461683926,102.10516789394202L469.8990919824951,103.4224518297003L470.9226377965977,99.91615660598848L471.9461836107002,101.77960919644484L472.96972942480284,95.65939379674225L473.9932752389054,98.65504772390659L475.0168210530079,93.81298328104933L476.04036686711055,84.62234715198815L477.063912681213,85.25261587561677L478.0874584953157,93.51290977452459L479.11100430941815,99.7438131903495L480.13455012352074,103.90085807556999L481.1580959376234,99.32826240658856L482.18164175172586,88.8735993714138L483.2051875658285,83.6740054984805L484.228733379931,82.23377855351112L485.2522791940336,82.14299477862578L486.2758250081361,78.53717875274677L487.2993708222387,79.35494141800673L488.32291663634123,79.13830771322701L489.3464624504438,77.13517718887752L490.3700082645464,76.04828947405079L491.39355407864895,76.14564727789393L492.41709989275154,67.77613003206712L493.44064570685407,65.62870514358752L494.46419152095666,72.90853746764408L495.4877373350592,72.79478199420308L496.5112831491618,71.27710885732961L497.5348289632644,69.50010580046506L498.5583747773669,66.49064691758886L499.5819205914695,68.7314546939744L500.60546640557203,69.65682866210962L501.6290122196746,75.5350834344831L502.6525580337771,72.80588037235717L503.67610384787974,70.18447990348989L504.69964966198233,78.75297572591L505.72319547608487,80.90644514190525L506.74674129018746,77.81138432902293L507.77028710428993,72.18464455246234L508.7938329183926,77.15706141602462L509.81737873249506,71.90511988521689L510.84092454659765,77.44759349324727L511.8644703607002,74.51053918182419L512.8880161748028,83.73739908451407L513.9115619889054,81.0080021280342L514.9351078030079,80.9878914119357L515.9586536171105,80.95266206418572L516.9821994312131,70.68931703478505L518.0057452453157,76.97441678289175L519.0292910594181,91.8973292294442L520.0528368735207,104.43503763005704L521.0763826876233,90.0521408359007L522.0999285017258,89.18272832775668L523.1234743158285,87.68251929501567L524.147020129931,81.31109244120553L525.1705659440336,96.09706435554043L526.194111758136,103.08309344144865L527.2176575722386,87.29940915646306L528.2412033863412,76.01054648666539L529.2647492004438,69.52427819235906L530.2882950145464,76.58381251028595L531.3118408286489,71.0939644541593L532.3353866427515,71.97908302928398L533.3589324568541,68.75928109857247L534.3824782709567,69.83088308400212L535.4060240850591,64.83724828623338L536.4295698991617,64.10816629817796L537.4531157132643,66.1867928820973L538.4766615273669,70.83771219889117L539.5002073414695,66.27552149144356L540.523753155572,67.01092588202563L541.5472989696746,66.18321950562631L542.5708447837771,65.28083430636713L543.5943905978797,68.00859292905052L544.6179364119823,59.11682549604185L545.6414822260848,68.4611048125267L546.6650280401874,69.80709693325005L547.68857385429,66.11366680301256L548.7121196683926,60.7002851526109L549.735665482495,64.50750405746011L550.7592112965976,66.87723663022803L551.7827571107001,69.95484490365082L552.8063029248027,65.26874428575034L553.8298487389054,65.82643917897106L554.8533945530079,65.67441195227366L555.8769403671105,65.13237140874851L556.900486181213,64.11892238250887L557.9240319953155,63.910221658460415L558.9475778094181,60.46617279787097L559.9711236235207,67.05842319070096L560.9946694376233,63.11347581978009L562.0182152517258,62.68489479619834L563.0417610658284,62.43511819694832L564.065306879931,56.77004628390064L565.0888526940336,52.58535504711489L566.112398508136,51.76759461267996L567.1359443222386,52.93842436131556L568.1594901363412,60.28026081426954L569.1830359504438,72.6499940397214L570.2065817645464,77.19525046002606L571.2301275786489,74.06234137773488L572.2536733927515,76.409664694904L573.277219206854,75.2594832256749L574.3007650209566,70.57139186925825L575.3243108350591,68.84956824437315L576.3478566491617,57.18808180773616L577.3714024632643,52.50155510062263L578.3949482773669,54.48281982715114L579.4184940914695,58.73204886666876L580.442039905572,61.59074151161569L581.4655857196746,62.984344083961055L582.489131533777,57.90130785418776L583.5126773478796,56.97327222584659L584.5362231619823,56.221722266560135L585.5597689760848,61.052981112078115L586.5833147901874,60.33477533572575L587.6068606042899,67.12595787593433L588.6304064183925,70.9222598635026L589.653952232495,73.33609407310774L590.6774980465976,72.42782855722558L591.7010438607001,66.34688792284791L592.7245896748027,62.42944593055906L593.7481354889053,56.065940168490364L594.7716813030079,53.91911942930535L595.7952271171105,57.513002862451955L596.818772931213,55.14410785921669L597.8423187453155,58.33405904440284L598.8658645594181,59.89426421965805L599.8894103735207,56.59950928991828L600.9129561876233,55.08916000141166L601.9365020017258,56.30561793768783L602.9600478158284,56.17073137502275L603.983593629931,59.233972234375805L605.0071394440336,61.14357016827767L606.030685258136,59.33889187272984L607.0542310722386,57.444643196824856L608.0777768863412,57.2844317574272L609.1013227004438,59.3872996046105L610.1248685145464,61.86214395569142L611.1484143286489,64.86743492720544L612.1719601427515,57.580668617844125L613.1955059568539,60.3464246449908L614.2190517709566,61.84467664368654L615.2425975850591,63.82656771363794L616.2661433991617,64.6904286611186L617.2896892132643,63.22273522225069L618.3132350273668,58.06753922536189L619.3367808414694,55.55786105465462L620.360326655572,53.62944487119225L621.3838724696745,50.013569850959854L622.407418283777,50.250519725262905L623.4309640978796,52.0536083213021L624.4545099119822,55.35091236409604L625.4780557260848,53.30004794753866L626.5016015401874,55.28241413631072L627.5251473542899,56.498400794700196L628.5486931683924,53.99064826073259L629.572238982495,53.65393935365251L630.5957847965976,60.67179456520989L631.6193306107002,58.86193205031145L632.6428764248027,65.53679431769457L633.6664222389053,62.324600271296255L634.6899680530079,58.94342322125201L635.7135138671105,57.85824371900223L636.7370596812129,53.41438462910255L637.7606054953155,58.024467386190224L638.784151309418,58.160760944155L639.8076971235207,57.496400018065835L640.8312429376233,50.43729126206274L641.8547887517258,45.23647703593957L642.8783345658284,47.401122074902105L643.9018803799308,55.515747179237906L644.9254261940335,52.330698963512624L645.948972008136,51.49651102303967L646.9725178222386,48.57075732247672L647.9960636363412,45.95116852473349L649.0196094504437,54.04758146087987L650.0431552645463,56.01738582094997L651.0667010786489,49.89362868816774L652.0902468927515,47.094128308323675L653.1137927068539,48.82486805956887L654.1373385209565,49.01491895794919L655.1608843350591,49.80459483132143L656.1844301491617,55.87387785907116L657.2079759632643,59.80693437567871L658.2315217773668,58.72043405712748L659.2550675914694,65.24802199385579L660.278613405572,60.852109586086605L661.3021592196745,57.33536747220345L662.325705033777,55.46697773028572L663.3492508478796,54.0762253977469L664.3727966619822,53.863404042458015L665.3963424760848,49.50984467863839L666.4198882901874,59.93036764333513L667.4434341042898,57.03451748413279L668.4669799183924,53.85363238539896L669.4905257324949,51.306062790488454L670.5140715465976,48.064606524521786L671.5376173607002,48.82294898037664L672.5611631748027,48.63172626191145L673.5847089889053,42.54544443393945L674.6082548030078,44.6312811006417L675.6318006171105,46.987457413856994L676.6553464312129,43.837146413905785L677.6788922453155,42.96852926471504L678.702438059418,44.870708785349116L679.7259838735206,41.07331696818215L680.7495296876233,40.29947871256657L681.7730755017258,43.36110613575209L682.7966213158284,38.211219166265735L683.8201671299308,37.305571435707236L684.8437129440334,39.47405766887708L685.867258758136,35.54456131497109L686.8908045722386,40.72080269956552L687.9143503863412,44.7437639658048L688.9378962004437,52.07141584761873L689.9614420145463,54.003653499630545L690.9849878286489,46.54256440764868L692.0085336427514,43.263621917264736L693.0320794568539,41.68207992381817L694.0556252709565,41.6029444214823L695.0791710850591,37.5934593198391L696.1027168991617,44.38298746742001L697.1262627132643,43.97148336453276L698.1498085273668,42.47605943127493L699.1733543414693,49.063314959015486L700.1969001555718,53.41607033270525L701.2204459696745,54.48185289443067L702.243991783777,57.8680379249191L703.2675375978796,63.41108725546161L704.2910834119822,58.29776311827492L705.3146292260847,48.74535716344151L706.3381750401874,46.48358296470631L707.3617208542898,49.462451913932554L708.3852666683924,55.042271396196924L709.4088124824949,50.04580880136948L710.4323582965975,55.82653874344505L711.4559041107002,49.83255488589151L712.4794499248027,55.56820337847546L713.5029957389053,55.4126840813706L714.5265415530077,55.653038069803L715.5500873671103,62.55842824462009L716.5736331812129,63.81141375974365L717.5971789953155,62.103329508258014L718.620724809418,59.311815942101454L719.6442706235206,55.704669940372696L720.6678164376232,57.71557008668846L721.6913622517258,62.3968146719658L722.7149080658284,60.480407180867594L723.7384538799308,49.99626128175761L724.7619996940334,55.338877416126145L725.7855455081359,57.8991036816376L726.8090913222386,59.88071446310982L727.8326371363412,61.78020403540599L728.8561829504437,54.651195293849746L729.8797287645463,59.31796901764672L730.9032745786487,51.32478544678121L731.9268203927514,53.294524248514385L732.9503662068539,52.60598300003893L733.9739120209565,49.00885698688347L734.9974578350591,50.35238976634495L736.0210036491616,51.641533440915644L737.0445494632643,56.59721469072765L738.0680952773668,55.36534314870625L739.0916410914693,52.19512017321973L740.1151869055718,51.99832963840316L741.1387327196744,51.991017899589515L742.162278533777,53.047812645498745L743.1858243478796,53.352904463522506L744.2093701619822,47.32457941694341L745.2329159760847,51.43140278049476L746.2564617901872,61.700606597659316L747.2800076042898,55.94520095200633L748.3035534183924,58.45082170838775L749.3270992324949,61.432507720694616L750.3506450465975,61.778917660373494L751.3741908607001,55.08431196643383L752.3977366748027,53.84827054376731L753.4212824889053,55.07996151337101L754.4448283030077,51.8714090166935L755.4683741171103,54.88874916946305L756.4919199312129,49.398656699974005L757.5154657453155,44.0416899176214L758.5390115594181,50.43379909140601L759.5625573735206,55.41321278983928L760.5861031876232,59.472849233129516L761.6096490017256,58.862628010403526L762.6331948158283,51.48803924537016L763.6567406299308,53.624413016572205L764.6802864440334,45.024498761130666L765.7038322581359,43.42762095082414L766.7273780722385,43.84942874018766L767.7509238863412,42.01855995793094L768.7744697004437,41.9868229389367L769.7980155145463,42.553891370625834L770.8215613286487,41.95640065264896L771.8451071427513,50.834838269656615L772.8686529568539,53.75037394504079L773.8921987709565,51.58725593971029L774.9157445850591,52.92341990567062L775.9392903991616,57.510261268131266L776.9628362132642,63.56780804037095L777.9863820273667,60.41546602266649L779.0099278414693,51.22735663418741L780.0334736555718,49.126518175397045L781.0570194696744,57.16601282736643L782.080565283777,58.22344074985065L783.1041110978796,60.44492379825028L784.1276569119822,62.45378653169609L785.1512027260846,58.320583431053784L786.1747485401872,49.72101455866051L787.1982943542898,42.905301884805695L788.2218401683924,44.75891037395369L789.2453859824949,48.25396193241474L790.2689317965975,45.734314970891326L791.2924776107001,41.867824862375194L792.3160234248026,42.30630710952136L793.3395692389053,41.96021069891727L794.3631150530077,46.060224116400086L795.3866608671103,45.364810546470686L796.4102066812128,43.914923111846235L797.4337524953154,49.5043278173056L798.4572983094181,51.68666790138773L799.4808441235206,59.3154792924388L800.5043899376232,53.59378777527572L801.5279357517256,53.65545238222184L802.5514815658282,51.90792374321054L803.5750273799308,55.24551565693326L804.5985731940334,50.936704127631664L805.6221190081359,48.368190823428314L806.6456648222385,46.593812432677474L807.6692106363411,42.88704242578267L808.6927564504437,48.32972732812718L809.7163022645462,45.88811547354544L810.7398480786487,44.52477612825892L811.7633938927513,46.84040228986015L812.7869397068539,41.44630855579696L813.8104855209565,43.23347016219947L814.8340313350591,41.997279589259215L815.8575771491616,41.7713462585822L816.8811229632641,45.557799496774L817.9046687773667,44.45820216687486L818.9282145914693,42.22354769735068L819.9517604055718,47.10864954608318L820.9753062196744,43.35898678238489L821.998852033777,41.64385438247322L823.0223978478795,50.91961578532535L824.0459436619822,48.29316674806609L825.0694894760846,47.874031639675366L826.0930352901872,43.45671714761332L827.1165811042897,48.2054337332021L828.1401269183923,43.90726729173305L829.1636727324949,47.879532274777716L830.1872185465975,53.16122441858014L831.2107643607001,49.85451052748696L832.2343101748027,47.60722730439697L833.2578559889051,45.678588956396965L834.2814018030077,46.83861968066762L835.3049476171103,46.66687462806678L836.3284934312129,41.56825582558723L837.3520392453153,38.886262896857055L838.375585059418,47.721956003433405L839.3991308735206,43.0600684037947L840.4226766876232,42.962582558874544L841.4462225017257,38.79211081847906L842.4697683158281,35.790313822889935L843.4933141299308,40.60619140074724L844.5168599440334,41.74341735975733L845.540405758136,41.57371956499476L846.5639515722386,41.36858461520087L847.5874973863409,40.62501840780142L848.6110432004436,40.32662291232706L849.6345890145462,39.31814444811454L850.6581348286488,39.377504535628354L851.6816806427512,37.570562628831L852.7052264568538,43.02353085219066L853.7287722709565,40.02603955013533L854.7523180850591,35.98989679077199L855.7758638991617,31.78025944287401L856.799409713264,33.610331490183434L857.8229555273666,35.16095834877957L858.8465013414692,34.17246956525565L859.8700471555719,33.72625600930394L860.8935929696743,39.561934842092995L861.9171387837769,40.36876432033594L862.9406845978795,40.07928673246291L863.964230411982,37.5165979479405L864.9877762260847,39.21552547762274L866.0113220401871,38.492688801494474L867.0348678542897,35.26268665061809L868.0584136683923,38.590509186129246L869.0819594824949,38.24766017797839L870.1055052965976,36.346313052076425L871.1290511107,39.126211109896374L872.1525969248025,36.587349997753265L873.1761427389051,36.92769085417464L874.1996885530077,40.64218005286124L875.2232343671102,48.74946954262858L876.2467801812128,46.84025831650922L877.2703259953154,52.090844348107396L878.293871809418,62.48047407375574L879.3174176235206,50.239489528645194L880.340963437623,49.80226063324388L881.3645092517256,41.330450206082205L882.3880550658282,48.26615604396567L883.4116008799308,50.59274818843869L884.4351466940333,48.71341485111195L885.4586925081359,45.970931590498544L886.4822383222385,41.93653395863841L887.505784136341,49.15951410173529L888.5293299504436,47.669710971355485L889.5528757645461,42.30146856889981L890.5764215786487,43.91797986875946L891.5999673927513,47.47621357465568L892.6235132068539,45.96439396992706L893.6470590209565,47.07907813739415L894.670604835059,43.10123639210191L895.6941506491615,40.33487088912239L896.7176964632641,42.70935043794637L897.7412422773667,45.33318436169875L898.7647880914692,45.37488570648647L899.7883339055718,46.971476229160224L900.8118797196744,44.69362930776622L901.835425533777,40.33906681773952L902.8589713478796,45.5509953931558L903.8825171619819,43.64105028685073L904.9060629760846,43.4339429217147L905.9296087901872,35.514760522639726L906.9531546042898,36.57110205140506L907.9767004183922,40.89563885648168L909.0002462324948,42.61690718891733L910.0237920465975,44.59138821529835L911.0473378607,41.25306371017466L912.0708836748026,42.33191569000019L913.094429488905,42.950208222821296L914.1179753030076,46.04104186789943L915.1415211171103,47.91478764033775L916.1650669312129,43.45499553615449L917.1886127453155,44.279702806025284L918.2121585594178,41.972749510991086L919.2357043735204,38.48841780255732L920.2592501876231,42.26739137479995L921.2827960017257,47.73263603514545" style="fill: none;" fill="none"></path></g></g></g></g><g opacity="0.2"><g><g><g><path stroke="rgb(238, 51, 119)" stroke-width="2px" d="M410.5334347645464,248.58935751022187L411.556980578649,278.7216072721045L412.58052639275155,323.09934714829956L413.60407220685414,231.45316290966485L414.62761802095673,197.6920700510994L415.6511638350592,221.21607503751102L416.67470964916185,246.58945785683736L417.69825546326445,176.91640954379682L418.7218012773669,161.56045665569707L419.74534709146957,155.40890116426215L420.76889290557205,168.6415032786886L421.79243871967464,175.35044102277905L422.81598453377717,141.4687382182136L423.83953034787976,137.52594074561117L424.8630761619823,138.36333181843654L425.8866219760849,136.2585780857553L426.9101677901875,137.05832815030394L427.93371360429,355.884011061424L428.9572594183926,225.6817118982079L429.98080523249513,154.85778986263924L431.0043510465977,115.46056176597843L432.02789686070025,205.75064393957692L433.05144267480284,161.9613534976121L434.07498848890543,163.2220666118486L435.09853430300797,144.91104578330035L436.12208011711056,180.3574465085145L437.1456259312131,166.28864530059562L438.1691717453157,139.06229921251241L439.1927175594182,138.81544604412528L440.2162633735208,173.1199886107259L441.2398091876234,234.12917392490442L442.2633550017259,184.2820524452676L443.2869008158285,121.98139261306606L444.310446629931,121.29719753125487L445.33399244403364,144.32391338333983L446.3575382581361,184.9131482511887L447.38108407223876,138.24758687883326L448.40462988634124,112.51342742679643L449.42817570044383,143.96513340835216L450.4517215145465,244.0066692288113L451.47526732864895,173.8125386286851L452.49881314275154,149.05083169169825L453.5223589568541,147.35682063464765L454.54590477095667,135.690387551264L455.5694505850592,145.6637688597694L456.5929963991618,252.33913136894483L457.6165422132644,183.07183303191184L458.6400880273669,117.11222405042797L459.6636338414695,113.88463317329655L460.68717965557204,160.57155150160688L461.7107254696746,192.80623593943395L462.73427128377716,112.43584060027118L463.75781709787975,120.44298683327771L464.7813629119823,94.05549184759685L465.8049087260849,113.2647026098216L466.82845454018747,120.43231125741904L467.85200035429,102.57585509812851L468.8755461683926,87.44860631903242L469.8990919824951,105.39837773333747L470.9226377965977,94.65671377042112L471.9461836107002,104.57478808212926L472.96972942480284,86.47907069718859L473.9932752389054,103.14852861465297L475.0168210530079,86.54988661676352L476.04036686711055,70.83639295839656L477.063912681213,86.19801896105962L478.0874584953157,105.90335062288631L479.11100430941815,109.09016831408697L480.13455012352074,110.1364254034007L481.1580959376234,92.46936890311639L482.18164175172586,73.19160481865175L483.2051875658285,75.87461468908052L484.228733379931,80.07343813605705L485.2522791940336,82.00681911629772L486.2758250081361,73.12845471392826L487.2993708222387,80.5815854158968L488.32291663634123,78.8133571560573L489.3464624504438,74.13048140235341L490.3700082645464,74.41795790181051L491.39355407864895,76.29168398365866L492.41709989275154,55.221854163326896L493.44064570685407,62.407567810868144L494.46419152095666,83.82828595372898L495.4877373350592,72.62414878404161L496.5112831491618,69.00059915201935L497.5348289632644,66.83460121516825L498.5583747773669,61.97645859327459L499.5819205914695,72.09266635855268L500.60546640557203,71.04488961431245L501.6290122196746,84.35246559304332L502.6525580337771,68.7120757791684L503.67610384787974,66.25237920018893L504.69964966198233,91.60571945954015L505.72319547608487,84.13664926589807L506.74674129018746,73.16879310969948L507.77028710428993,63.74453488762146L508.7938329183926,84.61568671136801L509.81737873249506,64.02720758900533L510.84092454659765,85.76130390529276L511.8644703607002,70.1049577146896L512.8880161748028,97.5776889385489L513.9115619889054,76.91390669331443L514.9351078030079,80.95772533778786L515.9586536171105,80.89981804256084L516.9821994312131,55.294299490684146L518.0057452453157,86.40206640505184L519.0292910594181,114.28169789927279L520.0528368735207,123.24160023097636L521.0763826876233,68.47779564466619L522.0999285017258,87.87860956554056L523.1234743158285,85.43220574590427L524.147020129931,71.75395216049037L525.1705659440336,118.27602222704279L526.194111758136,113.56213707031097L527.2176575722386,63.62388272898468L528.2412033863412,59.07725248196894L529.2647492004438,59.79487575089949L530.2882950145464,87.17311398717624L531.3118408286489,62.85919236996946L532.3353866427515,73.30676089197102L533.3589324568541,63.92957820250504L534.3824782709567,71.43828606214669L535.4060240850591,57.34679608958038L536.4295698991617,63.01454331609469L537.4531157132643,69.30473275797635L538.4766615273669,77.81409117408192L539.5002073414695,59.43223543027219L540.523753155572,68.11403246789875L541.5472989696746,64.94165994102723L542.5708447837771,63.927256507478454L543.5943905978797,72.10023086307568L544.6179364119823,45.77917434652874L545.6414822260848,82.47752378725399L546.6650280401874,71.82608511433494L547.68857385429,60.57352160765639L548.7121196683926,52.58021267700839L549.735665482495,70.21833241473394L550.7592112965976,70.4318354893799L551.7827571107001,74.57125731378501L552.8063029248027,58.239593358899604L553.8298487389054,66.66298151880207L554.8533945530079,65.44637111222762L555.8769403671105,64.31931059346093L556.900486181213,62.598748843149316L557.9240319953155,63.59717057238773L558.9475778094181,55.30009950698696L559.9711236235207,76.94679877994582L560.9946694376233,57.196054763398834L562.0182152517258,62.04202326082576L563.0417610658284,62.06045329807325L564.065306879931,48.27243841432916L565.0888526940336,46.30831819193631L566.112398508136,50.54095396102746L567.1359443222386,54.69466898426901L568.1594901363412,71.29301549370055L569.1830359504438,91.20459387789923L570.2065817645464,84.01313509048306L571.2301275786489,69.3629777542982L572.2536733927515,79.93064967065754L573.277219206854,73.53421102183133L574.3007650209566,63.5392548346333L575.3243108350591,66.26683280704542L576.3478566491617,39.69585215278065L577.3714024632643,45.47176503995234L578.3949482773669,57.45471691694403L579.4184940914695,65.10589242594509L580.442039905572,65.87878047903608L581.4655857196746,65.07474794247923L582.489131533777,50.276753509527914L583.5126773478796,55.581218783334876L584.5362231619823,55.09439732763034L585.5597689760848,68.29986938035506L586.5833147901874,59.2574666711972L587.6068606042899,77.31273168624722L588.6304064183925,76.6167128448551L589.653952232495,76.95684538751546L590.6774980465976,71.0654302834023L591.7010438607001,57.225476971281374L592.7245896748027,56.55328294212585L593.7481354889053,46.520681525387424L594.7716813030079,50.698888320527736L595.7952271171105,62.90382801217172L596.818772931213,51.59076535436373L597.8423187453155,63.118985822182154L598.8658645594181,62.23457198254074L599.8894103735207,51.657376895308666L600.9129561876233,52.82363606865172L601.9365020017258,58.13030484210209L602.9600478158284,55.968401531025165L603.983593629931,63.82883352340539L605.0071394440336,64.00796706913039L606.030685258136,56.63187442940805L607.0542310722386,54.60327018296736L608.0777768863412,57.04411459833088L609.1013227004438,62.54160137538551L610.1248685145464,65.57441048231267L611.1484143286489,69.37537138447655L612.1719601427515,46.6505191538022L613.1955059568539,64.49505868571073L614.2190517709566,64.09205464173009L615.2425975850591,66.79940431856498L616.2661433991617,65.98622008233968L617.2896892132643,61.021195063948795L618.3132350273668,50.334745230028666L619.3367808414694,51.793343798593625L620.360326655572,50.73682059599868L621.3838724696745,44.58975732061129L622.407418283777,50.60594453671749L623.4309640978796,54.75824121536099L624.4545099119822,60.29686842828693L625.4780557260848,50.22375132270252L626.5016015401874,58.25596341946896L627.5251473542899,58.3223807822844L628.5486931683924,50.229019459781064L629.572238982495,53.14887599303239L630.5957847965976,71.1985773825459L631.6193306107002,56.14713827796375L632.6428764248027,75.5490877187693L633.6664222389053,57.50630920169874L634.6899680530079,53.871657646185625L635.7135138671105,56.23047446562759L636.7370596812129,46.74859599425308L637.7606054953155,64.93959152182168L638.784151309418,58.36520128110225L639.8076971235207,56.49985862893196L640.8312429376233,39.848628128058195L641.8547887517258,37.43525569675489L642.8783345658284,50.6480896333458L643.9018803799308,67.68768483574158L644.9254261940335,47.55312663992474L645.948972008136,50.24522911233042L646.9725178222386,44.18212677163214L647.9960636363412,42.021785328118575L649.0196094504437,66.19220086509948L650.0431552645463,58.972092361055104L651.0667010786489,40.707992988994434L652.0902468927515,42.89487773855754L653.1137927068539,51.42097768643674L654.1373385209565,49.29999530551953L655.1608843350591,50.98910864137992L656.1844301491617,64.97780240069581L657.2079759632643,65.70651915058981L658.2315217773668,57.09068357930077L659.2550675914694,75.03940389894832L660.278613405572,54.25824097443273L661.3021592196745,52.06025430137877L662.325705033777,52.664393117409176L663.3492508478796,51.99009689893866L664.3727966619822,53.54417200952473L665.3963424760848,42.979505632908875L666.4198882901874,75.56115209038025L667.4434341042898,52.69074224532922L668.4669799183924,49.08230473729828L669.4905257324949,47.48470839812272L670.5140715465976,43.20242212557181L671.5376173607002,49.96046266415891L672.5611631748027,48.344892184213776L673.5847089889053,33.416021691981264L674.6082548030078,47.76003610069518L675.6318006171105,50.52172188367988L676.6553464312129,39.11167991397901L677.6788922453155,41.66560354092891L678.702438059418,47.72397806630028L679.7259838735206,35.37722924243166L680.7495296876233,39.13872132914332L681.7730755017258,47.95354727053031L682.7966213158284,30.486388712036156L683.8201671299308,35.94709983986948L684.8437129440334,42.72678701863182L685.867258758136,29.650316784112235L686.8908045722386,48.48516477645714L687.9143503863412,50.77820586516371L688.9378962004437,63.062893670339534L689.9614420145463,56.90200997764829L690.9849878286489,35.350930769675806L692.0085336427514,38.34520818168884L693.0320794568539,39.30976693364836L694.0556252709565,41.484241167978425L695.0791710850591,31.57923166737446L696.1027168991617,54.56727968879141L697.1262627132643,43.3542272102019L698.1498085273668,40.23292353138817L699.1733543414693,58.944198250626435L700.1969001555718,59.9452033932399L701.2204459696745,56.080526737018815L702.243991783777,62.94731547065175L703.2675375978796,71.72566125127534L704.2910834119822,50.627776912494895L705.3146292260847,34.41674823119155L706.3381750401874,43.09092166660352L707.3617208542898,53.93075533777179L708.3852666683924,63.41200061959361L709.4088124824949,42.55111490912832L710.4323582965975,64.49763365655842L711.4559041107002,40.84157909956121L712.4794499248027,64.17167611735138L713.5029957389053,55.17940513571332L714.5265415530077,56.0135690524517L715.5500873671103,72.9165135068456L716.5736331812129,65.69089203242896L717.5971789953155,59.54120313102966L718.620724809418,55.1245455928666L719.6442706235206,50.2939509377795L720.6678164376232,60.731920306162024L721.6913622517258,69.41868154988181L722.7149080658284,57.605795944220304L723.7384538799308,34.270042433092634L724.7619996940334,63.352801617679035L725.7855455081359,61.73944307990467L726.8090913222386,62.85313063531819L727.8326371363412,64.62943839385024L728.8561829504437,43.957682181515345L729.8797287645463,66.31812960334217L730.9032745786487,39.33501009048304L731.9268203927514,56.24913245111408L732.9503662068539,51.573171127325786L733.9739120209565,43.61316796715027L734.9974578350591,52.36768893553727L736.0210036491616,53.57524895277167L737.0445494632643,64.03073656544578L738.0680952773668,53.517535835674096L739.0916410914693,47.43978570998987L740.1151869055718,51.70314383617847L741.1387327196744,51.980050291369025L742.162278533777,54.633004764362575L743.1858243478796,53.810542190558195L744.2093701619822,38.28209184707482L745.2329159760847,57.591637825821756L746.2564617901872,77.10441232340605L747.2800076042898,47.31209248352695L748.3035534183924,62.2092528429598L749.3270992324949,65.90503673915502L750.3506450465975,62.29853256989172L751.3741908607001,45.042403425524284L752.3977366748027,51.994208409767566L753.4212824889053,56.92749796777669L754.4448283030077,47.05858027167712L755.4683741171103,59.41475939861743L756.4919199312129,41.163517995740385L757.5154657453155,36.00623974409247L758.5390115594181,60.02196285208292L759.5625573735206,62.882333337489094L760.5861031876232,65.56230389806491L761.6096490017256,57.94729617631452L762.6331948158283,40.42615609782011L763.6567406299308,56.828973673375216L764.6802864440334,32.124627377968245L765.7038322581359,41.03230423536443L766.7273780722385,44.48214042423291L767.7509238863412,39.27225678454592L768.7744697004437,41.93921741044537L769.7980155145463,43.40449401815956L770.8215613286487,41.0601645756836L771.8451071427513,64.15249469516797L772.8686529568539,58.12367745811705L773.8921987709565,48.34257893171455L774.9157445850591,54.92766585461108L775.9392903991616,64.39052331182222L776.9628362132642,72.6541281987305L777.9863820273667,55.686952996109845L779.0099278414693,37.44519255146871L780.0334736555718,45.97526048721155L781.0570194696744,69.22525480532038L782.080565283777,59.80958263357708L783.1041110978796,63.77714837084964L784.1276569119822,65.46708063186489L785.1512027260846,52.12077878009035L786.1747485401872,36.821661250070676L787.1982943542898,32.68173287402344L788.2218401683924,47.539323107675656L789.2453859824949,53.49653927010629L790.2689317965975,41.95484452860623L791.2924776107001,36.06808969960104L792.3160234248026,42.964030480240694L793.3395692389053,41.44106608301103L794.3631150530077,52.210244242624405L795.3866608671103,44.32169019157651L796.4102066812128,41.74009195990957L797.4337524953154,57.88843487549472L798.4572983094181,54.960178027510835L799.4808441235206,70.75869637901549L800.5043899376232,45.01125049953102L801.5279357517256,53.74794929264112L802.5514815658282,49.28663078469367L803.5750273799308,60.25190352751726L804.5985731940334,44.47348683367923L805.6221190081359,44.51542086712327L806.6456648222385,43.93224484655122L807.6692106363411,37.32688741544061L808.6927564504437,56.493754681643864L809.7163022645462,42.22569769167288L810.7398480786487,42.47976711032908L811.7633938927513,50.31384153226194L812.7869397068539,33.35516795470228L813.8104855209565,45.91421257180306L814.8340313350591,40.14299372984879L815.8575771491616,41.43244626256685L816.8811229632641,51.237479354061755L817.9046687773667,42.80880617202602L818.9282145914693,38.8715659930645L819.9517604055718,54.43630231918177L820.9753062196744,37.73449263683762L821.998852033777,39.07115578260562L823.0223978478795,64.83325788960349L824.0459436619822,44.353493192177226L825.0694894760846,47.24532897708934L826.0930352901872,36.83074540952021L827.1165811042897,55.328508611585136L828.1401269183923,37.460017629529474L829.1636727324949,53.83792974934468L830.1872185465975,61.08376263428378L831.2107643607001,44.89443969084733L832.2343101748027,44.2363024697619L833.2578559889051,42.78563143439685L834.2814018030077,48.578665767073794L835.3049476171103,46.40925704916546L836.3284934312129,33.920327621867926L837.3520392453153,34.863273503761725L838.375585059418,60.97549566329799L839.3991308735206,36.06723700433672L840.4226766876232,42.816353791494286L841.4462225017257,32.536403207885755L842.4697683158281,31.287618329506323L843.4933141299308,47.83000776753316L844.5168599440334,43.44925629827241L845.540405758136,41.31917287285093L846.5639515722386,41.06088219051001L847.5874973863409,39.50966909670221L848.6110432004436,39.879029669115596L849.6345890145462,37.805426751795736L850.6581348286488,39.46654466689904L851.6816806427512,34.860149768635L852.7052264568538,51.202983187230174L853.7287722709565,35.52980259705234L854.7523180850591,29.935682651726967L855.7758638991617,25.465803421026926L856.799409713264,36.35543956114759L857.8229555273666,37.486898636673786L858.8465013414692,32.68973638996971L859.8700471555719,33.05693567537651L860.8935929696743,48.31545309127651L861.9171387837769,41.57900853770048L862.9406845978795,39.6450703506534L863.964230411982,33.67256477115673L864.9877762260847,41.76391677214615L866.0113220401871,37.40843378730213L867.0348678542897,30.417683424303586L868.0584136683923,43.582242989395965L869.0819594824949,37.733386665752214L870.1055052965976,33.49429236322342L871.1290511107,43.29605819662637L872.1525969248025,32.77905832953846L873.1761427389051,37.4382021388068L874.1996885530077,46.21391385089115L875.2232343671102,60.91040377727951L876.2467801812128,43.9764414773303L877.2703259953154,59.96672339550462L878.293871809418,78.06491866222825L879.3174176235206,31.878012710979277L880.340963437623,49.14641729014189L881.3645092517256,28.622734565339734L882.3880550658282,58.66971480079093L883.4116008799308,54.08263640514819L884.4351466940333,45.89441484512171L885.4586925081359,41.85720669957854L886.4822383222385,35.88493751084823L887.505784136341,59.99398431638057L888.5293299504436,45.43500627578576L889.5528757645461,34.24910496521641L890.5764215786487,46.34274681854893L891.5999673927513,52.81356413349995L892.6235132068539,43.69666456283411L893.6470590209565,48.75110438859479L894.670604835059,37.13447377416353L895.6941506491615,36.18532263465319L896.7176964632641,46.27106976118232L897.7412422773667,49.26893524732731L898.7647880914692,45.43743772366817L899.7883339055718,49.36636201317078L900.8118797196744,41.276858925675256L901.835425533777,33.80722308269946L902.8589713478796,53.368888256280236L903.8825171619819,40.77613262739323L904.9060629760846,43.1232818740106L905.9296087901872,23.635986924027304L906.9531546042898,38.15561434455312L907.9767004183922,47.38244406409657L909.0002462324948,45.198809687570694L910.0237920465975,47.55310975486997L911.0473378607,36.24557695248898L912.0708836748026,43.950193659738666L913.094429488905,43.87764702205296L914.1179753030076,50.6772923355167L915.1415211171103,50.72540629899518L916.1650669312129,36.7653073798796L917.1886127453155,45.516763710831505L918.2121585594178,38.5123195684397L919.2357043735204,33.261920239906715L920.2592501876231,47.93585173316394L921.2827960017257,55.93050302566372" style="fill: none;" fill="none"></path></g></g></g></g></g></g><g transform="translate(50, 377)" clip-path="url(#clip_1)"><clipPath id="clip_1"><rect width="1657" height="22"></rect></clipPath><g><g><line x1="0.09156330941849118" y1="0" x2="0.09156330941849118" y2="5" style="visibility: inherit;" fill="rgb(0, 0, 0)" stroke="rgb(204, 204, 204)" stroke-width="1px"></line><line x1="204.80072612993118" y1="0" x2="204.80072612993118" y2="5" style="visibility: inherit;" fill="rgb(0, 0, 0)" stroke="rgb(204, 204, 204)" stroke-width="1px"></line><line x1="409.5098889504439" y1="0" x2="409.5098889504439" y2="5" style="visibility: inherit;" fill="rgb(0, 0, 0)" stroke="rgb(204, 204, 204)" stroke-width="1px"></line><line x1="614.2190517709566" y1="0" x2="614.2190517709566" y2="5" style="visibility: inherit;" fill="rgb(0, 0, 0)" stroke="rgb(204, 204, 204)" stroke-width="1px"></line><line x1="818.9282145914693" y1="0" x2="818.9282145914693" y2="5" style="visibility: inherit;" fill="rgb(0, 0, 0)" stroke="rgb(204, 204, 204)" stroke-width="1px"></line><line x1="1023.637377411982" y1="0" x2="1023.637377411982" y2="5" style="visibility: inherit;" fill="rgb(0, 0, 0)" stroke="rgb(204, 204, 204)" stroke-width="1px"></line><line x1="1228.3465402324946" y1="0" x2="1228.3465402324946" y2="5" style="visibility: inherit;" fill="rgb(0, 0, 0)" stroke="rgb(204, 204, 204)" stroke-width="1px"></line><line x1="1433.0557030530074" y1="0" x2="1433.0557030530074" y2="5" style="visibility: inherit;" fill="rgb(0, 0, 0)" stroke="rgb(204, 204, 204)" stroke-width="1px"></line><line x1="1637.76486587352" y1="0" x2="1637.76486587352" y2="5" style="visibility: inherit;" fill="rgb(0, 0, 0)" stroke="rgb(204, 204, 204)" stroke-width="1px"></line></g><g transform="translate(0, 8)"><text x="0.09156330941849118" y="0" dx="0em" dy="0.95em" style="text-anchor: middle; visibility: hidden; font-family: Roboto, sans-serif; font-size: 12px; font-weight: 200;" fill="rgb(33, 33, 33)" stroke="none" stroke-width="1px">-400k</text><text x="204.80072612993118" y="0" dx="0em" dy="0.95em" style="text-anchor: middle; visibility: inherit; font-family: Roboto, sans-serif; font-size: 12px; font-weight: 200;" fill="rgb(33, 33, 33)" stroke="none" stroke-width="1px">-200k</text><text x="409.5098889504439" y="0" dx="0em" dy="0.95em" style="text-anchor: middle; visibility: inherit; font-family: Roboto, sans-serif; font-size: 12px; font-weight: 200;" fill="rgb(33, 33, 33)" stroke="none" stroke-width="1px">0</text><text x="614.2190517709566" y="0" dx="0em" dy="0.95em" style="text-anchor: middle; visibility: inherit; font-family: Roboto, sans-serif; font-size: 12px; font-weight: 200;" fill="rgb(33, 33, 33)" stroke="none" stroke-width="1px">200k</text><text x="818.9282145914693" y="0" dx="0em" dy="0.95em" style="text-anchor: middle; visibility: inherit; font-family: Roboto, sans-serif; font-size: 12px; font-weight: 200;" fill="rgb(33, 33, 33)" stroke="none" stroke-width="1px">400k</text><text x="1023.637377411982" y="0" dx="0em" dy="0.95em" style="text-anchor: middle; visibility: inherit; font-family: Roboto, sans-serif; font-size: 12px; font-weight: 200;" fill="rgb(33, 33, 33)" stroke="none" stroke-width="1px">600k</text><text x="1228.3465402324946" y="0" dx="0em" dy="0.95em" style="text-anchor: middle; visibility: inherit; font-family: Roboto, sans-serif; font-size: 12px; font-weight: 200;" fill="rgb(33, 33, 33)" stroke="none" stroke-width="1px">800k</text><text x="1433.0557030530074" y="0" dx="0em" dy="0.95em" style="text-anchor: middle; visibility: inherit; font-family: Roboto, sans-serif; font-size: 12px; font-weight: 200;" fill="rgb(33, 33, 33)" stroke="none" stroke-width="1px">1M</text><text x="1637.76486587352" y="0" dx="0em" dy="0.95em" style="text-anchor: middle; visibility: inherit; font-family: Roboto, sans-serif; font-size: 12px; font-weight: 200;" fill="rgb(33, 33, 33)" stroke="none" stroke-width="1px">1.2M</text></g><line x1="0" y1="0" x2="1657.22" y2="0" fill="rgb(0, 0, 0)" stroke="rgb(204, 204, 204)" stroke-width="1px"></line></g></g></g></g></svg>