<svg viewBox="0 0 1707.2222900390625 400.0000305175781" xmlns="http://www.w3.org/2000/svg"><g><g><g><g><g><line x1="50" y1="357.41509358771856" x2="45" y2="357.41509358771856" style="visibility: inherit;" fill="rgb(0, 0, 0)" stroke="rgb(204, 204, 204)" stroke-width="1px"></line><line x1="50" y1="328.89249601654916" x2="45" y2="328.89249601654916" style="visibility: inherit;" fill="rgb(0, 0, 0)" stroke="rgb(204, 204, 204)" stroke-width="1px"></line><line x1="50" y1="300.3698984453798" x2="45" y2="300.3698984453798" style="visibility: inherit;" fill="rgb(0, 0, 0)" stroke="rgb(204, 204, 204)" stroke-width="1px"></line><line x1="50" y1="271.8473008742104" x2="45" y2="271.8473008742104" style="visibility: inherit;" fill="rgb(0, 0, 0)" stroke="rgb(204, 204, 204)" stroke-width="1px"></line><line x1="50" y1="243.32470330304105" x2="45" y2="243.32470330304105" style="visibility: inherit;" fill="rgb(0, 0, 0)" stroke="rgb(204, 204, 204)" stroke-width="1px"></line><line x1="50" y1="214.80210573187165" x2="45" y2="214.80210573187165" style="visibility: inherit;" fill="rgb(0, 0, 0)" stroke="rgb(204, 204, 204)" stroke-width="1px"></line><line x1="50" y1="186.27950816070228" x2="45" y2="186.27950816070228" style="visibility: inherit;" fill="rgb(0, 0, 0)" stroke="rgb(204, 204, 204)" stroke-width="1px"></line><line x1="50" y1="157.7569105895329" x2="45" y2="157.7569105895329" style="visibility: inherit;" fill="rgb(0, 0, 0)" stroke="rgb(204, 204, 204)" stroke-width="1px"></line><line x1="50" y1="129.23431301836354" x2="45" y2="129.23431301836354" style="visibility: inherit;" fill="rgb(0, 0, 0)" stroke="rgb(204, 204, 204)" stroke-width="1px"></line><line x1="50" y1="100.71171544719415" x2="45" y2="100.71171544719415" style="visibility: inherit;" fill="rgb(0, 0, 0)" stroke="rgb(204, 204, 204)" stroke-width="1px"></line><line x1="50" y1="72.18911787602478" x2="45" y2="72.18911787602478" style="visibility: inherit;" fill="rgb(0, 0, 0)" stroke="rgb(204, 204, 204)" stroke-width="1px"></line><line x1="50" y1="43.66652030485541" x2="45" y2="43.66652030485541" style="visibility: inherit;" fill="rgb(0, 0, 0)" stroke="rgb(204, 204, 204)" stroke-width="1px"></line><line x1="50" y1="15.143922733686038" x2="45" y2="15.143922733686038" style="visibility: inherit;" fill="rgb(0, 0, 0)" stroke="rgb(204, 204, 204)" stroke-width="1px"></line></g><g transform="translate(40, 0)"><text x="0" y="357.41509358771856" dx="0em" dy="0.3em" style="text-anchor: end; visibility: inherit; font-family: Roboto, sans-serif; font-size: 12px; font-weight: 200;" fill="rgb(33, 33, 33)" stroke="none" stroke-width="1px">-200</text><text x="0" y="328.89249601654916" dx="0em" dy="0.3em" style="text-anchor: end; visibility: inherit; font-family: Roboto, sans-serif; font-size: 12px; font-weight: 200;" fill="rgb(33, 33, 33)" stroke="none" stroke-width="1px">-150</text><text x="0" y="300.3698984453798" dx="0em" dy="0.3em" style="text-anchor: end; visibility: inherit; font-family: Roboto, sans-serif; font-size: 12px; font-weight: 200;" fill="rgb(33, 33, 33)" stroke="none" stroke-width="1px">-100</text><text x="0" y="271.8473008742104" dx="0em" dy="0.3em" style="text-anchor: end; visibility: inherit; font-family: Roboto, sans-serif; font-size: 12px; font-weight: 200;" fill="rgb(33, 33, 33)" stroke="none" stroke-width="1px">-50</text><text x="0" y="243.32470330304105" dx="0em" dy="0.3em" style="text-anchor: end; visibility: inherit; font-family: Roboto, sans-serif; font-size: 12px; font-weight: 200;" fill="rgb(33, 33, 33)" stroke="none" stroke-width="1px">0</text><text x="0" y="214.80210573187165" dx="0em" dy="0.3em" style="text-anchor: end; visibility: inherit; font-family: Roboto, sans-serif; font-size: 12px; font-weight: 200;" fill="rgb(33, 33, 33)" stroke="none" stroke-width="1px">50</text><text x="0" y="186.27950816070228" dx="0em" dy="0.3em" style="text-anchor: end; visibility: inherit; font-family: Roboto, sans-serif; font-size: 12px; font-weight: 200;" fill="rgb(33, 33, 33)" stroke="none" stroke-width="1px">100</text><text x="0" y="157.7569105895329" dx="0em" dy="0.3em" style="text-anchor: end; visibility: inherit; font-family: Roboto, sans-serif; font-size: 12px; font-weight: 200;" fill="rgb(33, 33, 33)" stroke="none" stroke-width="1px">150</text><text x="0" y="129.23431301836354" dx="0em" dy="0.3em" style="text-anchor: end; visibility: inherit; font-family: Roboto, sans-serif; font-size: 12px; font-weight: 200;" fill="rgb(33, 33, 33)" stroke="none" stroke-width="1px">200</text><text x="0" y="100.71171544719415" dx="0em" dy="0.3em" style="text-anchor: end; visibility: inherit; font-family: Roboto, sans-serif; font-size: 12px; font-weight: 200;" fill="rgb(33, 33, 33)" stroke="none" stroke-width="1px">250</text><text x="0" y="72.18911787602478" dx="0em" dy="0.3em" style="text-anchor: end; visibility: inherit; font-family: Roboto, sans-serif; font-size: 12px; font-weight: 200;" fill="rgb(33, 33, 33)" stroke="none" stroke-width="1px">300</text><text x="0" y="43.66652030485541" dx="0em" dy="0.3em" style="text-anchor: end; visibility: inherit; font-family: Roboto, sans-serif; font-size: 12px; font-weight: 200;" fill="rgb(33, 33, 33)" stroke="none" stroke-width="1px">350</text><text x="0" y="15.143922733686038" dx="0em" dy="0.3em" style="text-anchor: end; visibility: inherit; font-family: Roboto, sans-serif; font-size: 12px; font-weight: 200;" fill="rgb(33, 33, 33)" stroke="none" stroke-width="1px">400</text></g><line x1="50" y1="0" x2="50" y2="377" fill="rgb(0, 0, 0)" stroke="rgb(204, 204, 204)" stroke-width="1px"></line></g></g><g transform="translate(50, 0)" clip-path="url(#clip_0)"><clipPath id="clip_0"><rect width="1657" height="376"></rect></clipPath><g><g><g><line x1="92.0349847307012" y1="0" x2="92.0349847307012" y2="377" fill="rgb(0, 0, 0)" stroke="rgb(66, 66, 66)" stroke-width="1px" opacity="0.25"></line><line x1="268.475702756032" y1="0" x2="268.475702756032" y2="377" fill="rgb(0, 0, 0)" stroke="rgb(66, 66, 66)" stroke-width="1px" opacity="0.25"></line><line x1="444.91642078136283" y1="0" x2="444.91642078136283" y2="377" fill="rgb(0, 0, 0)" stroke="rgb(66, 66, 66)" stroke-width="1px" opacity="0.25"></line><line x1="621.3571388066937" y1="0" x2="621.3571388066937" y2="377" fill="rgb(0, 0, 0)" stroke="rgb(66, 66, 66)" stroke-width="1px" opacity="0.25"></line><line x1="797.7978568320244" y1="0" x2="797.7978568320244" y2="377" fill="rgb(0, 0, 0)" stroke="rgb(66, 66, 66)" stroke-width="1px" opacity="0.25"></line><line x1="974.2385748573553" y1="0" x2="974.2385748573553" y2="377" fill="rgb(0, 0, 0)" stroke="rgb(66, 66, 66)" stroke-width="1px" opacity="0.25"></line><line x1="1150.679292882686" y1="0" x2="1150.679292882686" y2="377" fill="rgb(0, 0, 0)" stroke="rgb(66, 66, 66)" stroke-width="1px" opacity="0.25"></line><line x1="1327.1200109080166" y1="0" x2="1327.1200109080166" y2="377" fill="rgb(0, 0, 0)" stroke="rgb(66, 66, 66)" stroke-width="1px" opacity="0.25"></line><line x1="1503.5607289333475" y1="0" x2="1503.5607289333475" y2="377" fill="rgb(0, 0, 0)" stroke="rgb(66, 66, 66)" stroke-width="1px" opacity="0.25"></line></g><g><line x1="0" y1="357.41509358771856" x2="1657.22" y2="357.41509358771856" fill="rgb(0, 0, 0)" stroke="rgb(66, 66, 66)" stroke-width="1px" opacity="0.25"></line><line x1="0" y1="328.89249601654916" x2="1657.22" y2="328.89249601654916" fill="rgb(0, 0, 0)" stroke="rgb(66, 66, 66)" stroke-width="1px" opacity="0.25"></line><line x1="0" y1="300.3698984453798" x2="1657.22" y2="300.3698984453798" fill="rgb(0, 0, 0)" stroke="rgb(66, 66, 66)" stroke-width="1px" opacity="0.25"></line><line x1="0" y1="271.8473008742104" x2="1657.22" y2="271.8473008742104" fill="rgb(0, 0, 0)" stroke="rgb(66, 66, 66)" stroke-width="1px" opacity="0.25"></line><line x1="0" y1="243.32470330304105" x2="1657.22" y2="243.32470330304105" fill="rgb(0, 0, 0)" stroke="rgb(66, 66, 66)" stroke-width="1px" opacity="0.25"></line><line x1="0" y1="214.80210573187165" x2="1657.22" y2="214.80210573187165" fill="rgb(0, 0, 0)" stroke="rgb(66, 66, 66)" stroke-width="1px" opacity="0.25"></line><line x1="0" y1="186.27950816070228" x2="1657.22" y2="186.27950816070228" fill="rgb(0, 0, 0)" stroke="rgb(66, 66, 66)" stroke-width="1px" opacity="0.25"></line><line x1="0" y1="157.7569105895329" x2="1657.22" y2="157.7569105895329" fill="rgb(0, 0, 0)" stroke="rgb(66, 66, 66)" stroke-width="1px" opacity="0.25"></line><line x1="0" y1="129.23431301836354" x2="1657.22" y2="129.23431301836354" fill="rgb(0, 0, 0)" stroke="rgb(66, 66, 66)" stroke-width="1px" opacity="0.25"></line><line x1="0" y1="100.71171544719415" x2="1657.22" y2="100.71171544719415" fill="rgb(0, 0, 0)" stroke="rgb(66, 66, 66)" stroke-width="1px" opacity="0.25"></line><line x1="0" y1="72.18911787602478" x2="1657.22" y2="72.18911787602478" fill="rgb(0, 0, 0)" stroke="rgb(66, 66, 66)" stroke-width="1px" opacity="0.25"></line><line x1="0" y1="43.66652030485541" x2="1657.22" y2="43.66652030485541" fill="rgb(0, 0, 0)" stroke="rgb(66, 66, 66)" stroke-width="1px" opacity="0.25"></line><line x1="0" y1="15.143922733686038" x2="1657.22" y2="15.143922733686038" fill="rgb(0, 0, 0)" stroke="rgb(66, 66, 66)" stroke-width="1px" opacity="0.25"></line></g></g></g><g><g><line x1="0" y1="243.32470330304105" x2="1657.22" y2="243.32470330304105" fill="rgb(0, 0, 0)" stroke="rgb(153, 153, 153)" stroke-width="1.5px"></line></g></g><g><g><line x1="92.0349847307012" y1="0" x2="92.0349847307012" y2="377" fill="rgb(0, 0, 0)" stroke="rgb(153, 153, 153)" stroke-width="1.5px"></line></g></g><g><g><g><g><g><path stroke="rgb(51, 187, 238)" stroke-width="2px" d="M100.85702063196774,317.8838683683522L109.67905653323429,321.77905741051455L118.5010924345008,340.1068181934264L127.32312833576735,351.6181107847466L136.1451642370339,315.702697896612L144.96720013830046,291.9927002956824L153.789236039567,278.45484090024206L162.61127194083352,275.51142839221615L171.43330784210005,279.9499848988412L180.2553437433666,282.82298672233594L189.07737964463314,293.67063916131565L197.89941554589967,291.0853617286036L206.72145144716623,284.48183668693514L215.54348734843276,271.43720871418947L224.3655232496993,257.5450577562245L233.18755915096585,252.24056252745936L242.00959505223238,246.79879823945222L250.83163095349894,242.30079245743283L259.65366685476545,236.70084096260584L268.475702756032,235.41914900794546L277.29773865729857,252.1917894633849L286.1197745585651,258.6988689443065L294.94181045983163,269.6013350342717L303.76384636109816,253.9328262519009L312.5858822623647,243.6500753824542L321.4079181636313,258.17982313109263L330.2299540648978,284.1702598955294L339.0519899661643,275.2554852083875L347.8740258674309,256.03550196564396L356.6960617686974,241.62323319376566L365.518097669964,235.95979174517672L374.34013357123047,235.03815543239764L383.162169472497,247.3426160467338L391.9842053737636,239.78657678118088L400.8062412750301,228.9231544734371L409.62827717629665,225.29218993492245L418.4503130775632,223.2102527744035L427.27234897882977,220.14263300260606L436.09438488009624,216.06993721514172L444.91642078136283,219.77382085438217L453.73845668262936,203.57547750670074L462.56049258389584,207.1380276021311L471.3825284851624,208.30737789468722L480.204564386429,207.80001310072979L489.02660028769554,214.29768101606174L497.848636188962,218.4476893823762L506.6706720902286,220.11774893189198L515.4927079914952,222.07281614715154L524.3147438927616,221.54391095530946L533.1367797940283,222.35778896183356L541.9588156952948,221.45090480772075L550.7808515965613,218.2126013685279L559.6028874978279,218.51561283224083L568.4249233990944,218.25225549720363L577.246959300361,217.9932116670954L586.0689952016274,210.97596633281125L594.891031102894,214.9620316431138L603.7130670041606,218.03374694028577L612.535102905427,220.72879906564572L621.3571388066937,221.28438373771823L630.1791747079602,220.04991695290488L639.0012106092266,238.98298406124803L647.8232465104933,230.59860714651114L656.6452824117598,225.67419999361056L665.4673183130263,224.73273596364794L674.2893542142929,224.52690384776187L683.1113901155594,222.44653660061L691.933426016826,219.32067229632142L700.7554619180925,208.632269056949L709.577497819359,214.46038298277549L718.3995337206256,217.39834142920012L727.2215696218921,218.4557453822365L736.0436055231587,220.028797779771L744.8656414244252,221.60319466797134L753.6876773256917,222.6155408933803L762.5097132269583,223.20971096798536L771.3317491282248,224.8914209616348L780.1537850294914,224.56796212552453L788.9758209307579,223.47342298698717L797.7978568320244,224.25290299148364L806.6198927332911,221.56451961366798L815.4419286345575,222.2392546881365L824.263964535824,222.99540642929958L833.0860004370905,223.5499763168598L841.9080363383572,222.05677933546164L850.7300722396237,223.27901436862345L859.5521081408901,222.85321270856784L868.3741440421568,223.04977066565502L877.1961799434233,222.98824583102535L886.0182158446897,221.95282849819083L894.8402517459564,220.7262058110878L903.6622876472229,222.17544721117008L912.4843235484893,222.12410767787924L921.3063594497561,222.41333972363924L930.1283953510225,222.40730096229166L938.950431252289,223.04160795307695L947.7724671535557,223.38894915060473L956.5945030548221,219.2677222657819L965.4165389560887,165.9454035182909L974.2385748573553,135.2144714615108L983.0606107586218,126.89334623115548L991.8826466598885,108.99827979928189L1000.7046825611549,91.21201504282436L1009.5267184624214,98.48553813348263L1018.348754363688,73.67177280619987L1027.1707902649546,65.76237905260822L1035.992826166221,69.22776913855117L1044.8148620674876,68.95705033075359L1053.636897968754,66.15963518969434L1062.4589338700207,72.74161865159604L1071.2809697712873,87.2957974029195L1080.1030056725538,84.86745957608365L1088.9250415738202,97.34202232111093L1097.7470774750868,92.71057151469599L1106.5691133763532,118.63362677436778L1115.39114927762,135.13199591548636L1124.2131851788865,136.5971582685348L1133.035221080153,114.2205479439953L1141.8572569814194,108.93035675664377L1150.679292882686,113.38026761422584L1159.5013287839524,100.69436066139673L1168.323364685219,103.35837821451697L1177.1454005864855,86.4789677611937L1185.9674364877521,131.29259554856327L1194.7894723890186,161.79623690724605L1203.6115082902852,149.08849922691803L1212.4335441915518,151.3450808977728L1221.2555800928183,142.73485959560685L1230.0776159940847,126.7790654624912L1238.8996518953513,118.29520304357153L1247.721687796618,94.2218260653309L1256.5437236978844,109.58616704053061L1265.365759599151,134.20914867469992L1274.1877955004175,140.93042725471605L1283.0098314016839,161.9378845930314L1291.8318673029507,161.00626779608112L1300.6539032042172,163.4401197048308L1309.4759391054836,167.2283337081722L1318.2979750067502,144.30037728388288L1327.1200109080166,119.6182856509102L1335.9420468092833,120.36981022801251L1344.76408271055,98.44248751589473L1353.5861186118163,102.3968391673074L1362.4081545130828,100.85336227241407L1371.2301904143494,99.9131958883372L1380.052226315616,87.3013660167454L1388.8742622168827,92.94812740636232L1397.6962981181491,104.00438292967927L1406.5183340194155,93.80031239238029L1415.3403699206822,88.95737597042012L1424.1624058219486,92.58775606219943L1432.9844417232152,88.90517873423714L1441.8064776244819,102.21362103446417L1450.6285135257483,90.07562824308849L1459.4505494270147,101.34216895313035L1468.2725853282814,100.68716156826149L1477.094621229548,92.26015752664804L1485.9166571308144,124.43346727971873L1494.738693032081,88.24911934145068L1503.5607289333475,80.89594778743084L1512.3827648346141,62.380901644638485L1521.2048007358808,70.09885652279974L1530.0268366371472,71.52350425293746L1538.8488725384136,75.42466090187148" style="fill: none;" fill="none"></path></g></g></g></g><g opacity="0.2"><g><g><g><path stroke="rgb(51, 187, 238)" stroke-width="2px" d="M100.85702063196774,317.8838683683522L109.67905653323429,324.1161708358119L118.5010924345008,357.70146854502184L127.32312833576735,365.15539087213904L136.1451642370339,268.81153482986343L144.96720013830046,259.1932380144606L153.789236039567,259.09548535901206L162.61127194083352,271.21990469875425L171.43330784210005,286.4959936008973L180.2553437433666,287.08905959910106L189.07737964463314,309.84373041055096L197.89941554589967,287.22151454515836L206.72145144716623,274.59811077943164L215.54348734843276,251.89582253924667L224.3655232496993,236.7231610212368L233.18755915096585,244.2875608253226L242.00959505223238,238.6384545797136L250.83163095349894,235.55492582758464L259.65366685476545,228.301766816612L268.475702756032,233.49672822767644L277.29773865729857,277.34983029507947L286.1197745585651,268.4592740474669L294.94181045983163,285.954818919045L303.76384636109816,230.43024868676883L312.5858822623647,228.2260221636763L321.4079181636313,279.9743827913133L330.2299540648978,323.15584853978015L339.0519899661643,261.88333686395373L347.8740258674309,227.20554480584966L356.6960617686974,220.00483800138997L365.518097669964,227.4646314503522L374.34013357123047,233.65570114660377L383.162169472497,265.7993054993325L391.9842053737636,228.45251842407507L400.8062412750301,212.62802147869624L409.62827717629665,219.84574322077867L418.4503130775632,220.0873470658361L427.27234897882977,215.5412033733866L436.09438488009624,209.9608935566293L444.91642078136283,225.32964630086477L453.73845668262936,179.27796251765832L462.56049258389584,212.4818527409906L471.3825284851624,210.06140333267734L480.204564386429,207.03896591001336L489.02660028769554,224.04418288737105L497.848636188962,224.67270193120086L506.6706720902286,222.62283825600946L515.4927079914952,225.00541696993102L524.3147438927616,220.75055316756416L533.1367797940283,223.57860597160328L541.9588156952948,220.09057857656254L550.7808515965613,213.35514620976224L559.6028874978279,218.9701300278088L568.4249233990944,217.8572194946486L577.246959300361,217.60464592193335L586.0689952016274,200.45009833139162L594.891031102894,220.94112960856532L603.7130670041606,222.64131988604277L612.535102905427,224.77137725368505L621.3571388066937,222.11776074582704L630.1791747079602,218.19821677568495L639.0012106092266,267.3825847237619L647.8232465104933,218.02204177440598L656.6452824117598,218.28758926425982L665.4673183130263,223.32053991870393L674.2893542142929,224.21815567393284L683.1113901155594,219.32598572988215L691.933426016826,214.63187583988864L700.7554619180925,192.5996641978903L709.577497819359,223.20255387151525L718.3995337206256,221.80527909883705L727.2215696218921,220.041851311791L736.0436055231587,222.38837637607264L744.8656414244252,223.9647900002719L753.6876773256917,224.13406023149372L762.5097132269583,224.10096607989288L771.3317491282248,227.41398595210902L780.1537850294914,224.08277387135902L788.9758209307579,221.83161427918114L797.7978568320244,225.4221229982283L806.6198927332911,217.5319445469444L815.4419286345575,223.25135729983927L824.263964535824,224.12963404104423L833.0860004370905,224.3818311482001L841.9080363383572,219.81698386336438L850.7300722396237,225.11236691836612L859.5521081408901,222.2145102184844L868.3741440421568,223.3446076012858L877.1961799434233,222.89595857908077L886.0182158446897,220.39970249893915L894.8402517459564,218.88627178043313L903.6622876472229,224.34930931129355L912.4843235484893,222.04709837794286L921.3063594497561,222.84718779227924L930.1283953510225,222.39824282027033L938.950431252289,223.9930684392548L947.7724671535557,223.90996094689638L956.5945030548221,213.08588193854763L965.4165389560887,85.9619253970544L974.2385748573553,89.11807337634073L983.0606107586218,114.4116583856224L991.8826466598885,82.15568015147157L1000.7046825611549,64.53261790813798L1009.5267184624214,109.39582276946999L1018.348754363688,36.451124815275676L1027.1707902649546,53.89828842222065L1035.992826166221,74.42585426746554L1044.8148620674876,68.55097211905719L1053.636897968754,61.963512478105436L1062.4589338700207,82.61459384444863L1071.2809697712873,109.12706552990474L1080.1030056725538,81.22495283582982L1088.9250415738202,116.05386643865191L1097.7470774750868,85.76339530507346L1106.5691133763532,157.5182096638755L1115.39114927762,159.8795496271642L1124.2131851788865,138.7949017981074L1133.035221080153,80.65563245718607L1141.8572569814194,100.99506997561647L1150.679292882686,120.05513390059886L1159.5013287839524,81.66550023215308L1168.323364685219,107.35440454419727L1177.1454005864855,61.1598520812088L1185.9674364877521,198.51303722961768L1194.7894723890186,207.55169894527026L1203.6115082902852,130.0268927064259L1212.4335441915518,154.72995340405495L1221.2555800928183,129.81952764235797L1230.0776159940847,102.84537426281773L1238.8996518953513,105.56940941519197L1247.721687796618,58.111760597969976L1256.5437236978844,132.63267850333008L1265.365759599151,171.1436211259539L1274.1877955004175,151.01234512474022L1283.0098314016839,193.44907060050446L1291.8318673029507,159.6088426006556L1300.6539032042172,167.0908975679553L1309.4759391054836,172.91065471318424L1318.2979750067502,109.9084426474489L1327.1200109080166,82.59514820145121L1335.9420468092833,121.497097093666L1344.76408271055,65.55150344771798L1353.5861186118163,108.3283666444264L1362.4081545130828,98.53814693007408L1371.2301904143494,98.50294631222197L1380.052226315616,68.3836212093577L1388.8742622168827,101.41826949078758L1397.6962981181491,120.58876621465468L1406.5183340194155,78.49420658643189L1415.3403699206822,81.6929713374798L1424.1624058219486,98.03332619986851L1432.9844417232152,83.38131274229377L1441.8064776244819,122.17628448480467L1450.6285135257483,71.868639056025L1459.4505494270147,118.24198001819308L1468.2725853282814,99.7046504909582L1477.094621229548,79.61965146422787L1485.9166571308144,172.69343190932457L1494.738693032081,33.972597434048566L1503.5607289333475,69.86619045640113L1512.3827648346141,34.60833243044991L1521.2048007358808,81.67578884004163L1530.0268366371472,73.66047584814399L1538.8488725384136,81.27639587527248" style="fill: none;" fill="none"></path></g></g></g></g></g></g><g transform="translate(50, 377)" clip-path="url(#clip_1)"><clipPath id="clip_1"><rect width="1657" height="22"></rect></clipPath><g><g><line x1="92.0349847307012" y1="0" x2="92.0349847307012" y2="5" style="visibility: inherit;" fill="rgb(0, 0, 0)" stroke="rgb(204, 204, 204)" stroke-width="1px"></line><line x1="268.475702756032" y1="0" x2="268.475702756032" y2="5" style="visibility: inherit;" fill="rgb(0, 0, 0)" stroke="rgb(204, 204, 204)" stroke-width="1px"></line><line x1="444.91642078136283" y1="0" x2="444.91642078136283" y2="5" style="visibility: inherit;" fill="rgb(0, 0, 0)" stroke="rgb(204, 204, 204)" stroke-width="1px"></line><line x1="621.3571388066937" y1="0" x2="621.3571388066937" y2="5" style="visibility: inherit;" fill="rgb(0, 0, 0)" stroke="rgb(204, 204, 204)" stroke-width="1px"></line><line x1="797.7978568320244" y1="0" x2="797.7978568320244" y2="5" style="visibility: inherit;" fill="rgb(0, 0, 0)" stroke="rgb(204, 204, 204)" stroke-width="1px"></line><line x1="974.2385748573553" y1="0" x2="974.2385748573553" y2="5" style="visibility: inherit;" fill="rgb(0, 0, 0)" stroke="rgb(204, 204, 204)" stroke-width="1px"></line><line x1="1150.679292882686" y1="0" x2="1150.679292882686" y2="5" style="visibility: inherit;" fill="rgb(0, 0, 0)" stroke="rgb(204, 204, 204)" stroke-width="1px"></line><line x1="1327.1200109080166" y1="0" x2="1327.1200109080166" y2="5" style="visibility: inherit;" fill="rgb(0, 0, 0)" stroke="rgb(204, 204, 204)" stroke-width="1px"></line><line x1="1503.5607289333475" y1="0" x2="1503.5607289333475" y2="5" style="visibility: inherit;" fill="rgb(0, 0, 0)" stroke="rgb(204, 204, 204)" stroke-width="1px"></line></g><g transform="translate(0, 8)"><text x="92.0349847307012" y="0" dx="0em" dy="0.95em" style="text-anchor: middle; visibility: inherit; font-family: Roboto, sans-serif; font-size: 12px; font-weight: 200;" fill="rgb(33, 33, 33)" stroke="none" stroke-width="1px">0</text><text x="268.475702756032" y="0" dx="0em" dy="0.95em" style="text-anchor: middle; visibility: inherit; font-family: Roboto, sans-serif; font-size: 12px; font-weight: 200;" fill="rgb(33, 33, 33)" stroke="none" stroke-width="1px">20k</text><text x="444.91642078136283" y="0" dx="0em" dy="0.95em" style="text-anchor: middle; visibility: inherit; font-family: Roboto, sans-serif; font-size: 12px; font-weight: 200;" fill="rgb(33, 33, 33)" stroke="none" stroke-width="1px">40k</text><text x="621.3571388066937" y="0" dx="0em" dy="0.95em" style="text-anchor: middle; visibility: inherit; font-family: Roboto, sans-serif; font-size: 12px; font-weight: 200;" fill="rgb(33, 33, 33)" stroke="none" stroke-width="1px">60k</text><text x="797.7978568320244" y="0" dx="0em" dy="0.95em" style="text-anchor: middle; visibility: inherit; font-family: Roboto, sans-serif; font-size: 12px; font-weight: 200;" fill="rgb(33, 33, 33)" stroke="none" stroke-width="1px">80k</text><text x="974.2385748573553" y="0" dx="0em" dy="0.95em" style="text-anchor: middle; visibility: inherit; font-family: Roboto, sans-serif; font-size: 12px; font-weight: 200;" fill="rgb(33, 33, 33)" stroke="none" stroke-width="1px">100k</text><text x="1150.679292882686" y="0" dx="0em" dy="0.95em" style="text-anchor: middle; visibility: inherit; font-family: Roboto, sans-serif; font-size: 12px; font-weight: 200;" fill="rgb(33, 33, 33)" stroke="none" stroke-width="1px">120k</text><text x="1327.1200109080166" y="0" dx="0em" dy="0.95em" style="text-anchor: middle; visibility: inherit; font-family: Roboto, sans-serif; font-size: 12px; font-weight: 200;" fill="rgb(33, 33, 33)" stroke="none" stroke-width="1px">140k</text><text x="1503.5607289333475" y="0" dx="0em" dy="0.95em" style="text-anchor: middle; visibility: inherit; font-family: Roboto, sans-serif; font-size: 12px; font-weight: 200;" fill="rgb(33, 33, 33)" stroke="none" stroke-width="1px">160k</text></g><line x1="0" y1="0" x2="1657.22" y2="0" fill="rgb(0, 0, 0)" stroke="rgb(204, 204, 204)" stroke-width="1px"></line></g></g></g></g></svg>