<svg viewBox="0 0 1707.2222900390625 400.0000305175781" xmlns="http://www.w3.org/2000/svg"><g><g><g><g><g><line x1="50" y1="365.5142984963685" x2="45" y2="365.5142984963685" style="visibility: inherit;" fill="rgb(0, 0, 0)" stroke="rgb(204, 204, 204)" stroke-width="1px"></line><line x1="50" y1="317.89098078428003" x2="45" y2="317.89098078428003" style="visibility: inherit;" fill="rgb(0, 0, 0)" stroke="rgb(204, 204, 204)" stroke-width="1px"></line><line x1="50" y1="270.26766307219157" x2="45" y2="270.26766307219157" style="visibility: inherit;" fill="rgb(0, 0, 0)" stroke="rgb(204, 204, 204)" stroke-width="1px"></line><line x1="50" y1="222.64434536010307" x2="45" y2="222.64434536010307" style="visibility: inherit;" fill="rgb(0, 0, 0)" stroke="rgb(204, 204, 204)" stroke-width="1px"></line><line x1="50" y1="175.0210276480146" x2="45" y2="175.0210276480146" style="visibility: inherit;" fill="rgb(0, 0, 0)" stroke="rgb(204, 204, 204)" stroke-width="1px"></line><line x1="50" y1="127.39770993592613" x2="45" y2="127.39770993592613" style="visibility: inherit;" fill="rgb(0, 0, 0)" stroke="rgb(204, 204, 204)" stroke-width="1px"></line><line x1="50" y1="79.77439222383765" x2="45" y2="79.77439222383765" style="visibility: inherit;" fill="rgb(0, 0, 0)" stroke="rgb(204, 204, 204)" stroke-width="1px"></line><line x1="50" y1="32.15107451174919" x2="45" y2="32.15107451174919" style="visibility: inherit;" fill="rgb(0, 0, 0)" stroke="rgb(204, 204, 204)" stroke-width="1px"></line></g><g transform="translate(40, 0)"><text x="0" y="365.5142984963685" dx="0em" dy="0.3em" style="text-anchor: end; visibility: inherit; font-family: Roboto, sans-serif; font-size: 12px; font-weight: 200;" fill="rgb(33, 33, 33)" stroke="none" stroke-width="1px">-100</text><text x="0" y="317.89098078428003" dx="0em" dy="0.3em" style="text-anchor: end; visibility: inherit; font-family: Roboto, sans-serif; font-size: 12px; font-weight: 200;" fill="rgb(33, 33, 33)" stroke="none" stroke-width="1px">-50</text><text x="0" y="270.26766307219157" dx="0em" dy="0.3em" style="text-anchor: end; visibility: inherit; font-family: Roboto, sans-serif; font-size: 12px; font-weight: 200;" fill="rgb(33, 33, 33)" stroke="none" stroke-width="1px">0</text><text x="0" y="222.64434536010307" dx="0em" dy="0.3em" style="text-anchor: end; visibility: inherit; font-family: Roboto, sans-serif; font-size: 12px; font-weight: 200;" fill="rgb(33, 33, 33)" stroke="none" stroke-width="1px">50</text><text x="0" y="175.0210276480146" dx="0em" dy="0.3em" style="text-anchor: end; visibility: inherit; font-family: Roboto, sans-serif; font-size: 12px; font-weight: 200;" fill="rgb(33, 33, 33)" stroke="none" stroke-width="1px">100</text><text x="0" y="127.39770993592613" dx="0em" dy="0.3em" style="text-anchor: end; visibility: inherit; font-family: Roboto, sans-serif; font-size: 12px; font-weight: 200;" fill="rgb(33, 33, 33)" stroke="none" stroke-width="1px">150</text><text x="0" y="79.77439222383765" dx="0em" dy="0.3em" style="text-anchor: end; visibility: inherit; font-family: Roboto, sans-serif; font-size: 12px; font-weight: 200;" fill="rgb(33, 33, 33)" stroke="none" stroke-width="1px">200</text><text x="0" y="32.15107451174919" dx="0em" dy="0.3em" style="text-anchor: end; visibility: inherit; font-family: Roboto, sans-serif; font-size: 12px; font-weight: 200;" fill="rgb(33, 33, 33)" stroke="none" stroke-width="1px">250</text></g><line x1="50" y1="0" x2="50" y2="377" fill="rgb(0, 0, 0)" stroke="rgb(204, 204, 204)" stroke-width="1px"></line></g></g><g transform="translate(50, 0)" clip-path="url(#clip_0)"><clipPath id="clip_0"><rect width="1657" height="376"></rect></clipPath><g><g><g><line x1="118.86168179796664" y1="0" x2="118.86168179796664" y2="377" fill="rgb(0, 0, 0)" stroke="rgb(66, 66, 66)" stroke-width="1px" opacity="0.25"></line><line x1="342.05123364626274" y1="0" x2="342.05123364626274" y2="377" fill="rgb(0, 0, 0)" stroke="rgb(66, 66, 66)" stroke-width="1px" opacity="0.25"></line><line x1="565.240785494559" y1="0" x2="565.240785494559" y2="377" fill="rgb(0, 0, 0)" stroke="rgb(66, 66, 66)" stroke-width="1px" opacity="0.25"></line><line x1="788.430337342855" y1="0" x2="788.430337342855" y2="377" fill="rgb(0, 0, 0)" stroke="rgb(66, 66, 66)" stroke-width="1px" opacity="0.25"></line><line x1="1011.6198891911512" y1="0" x2="1011.6198891911512" y2="377" fill="rgb(0, 0, 0)" stroke="rgb(66, 66, 66)" stroke-width="1px" opacity="0.25"></line><line x1="1234.8094410394472" y1="0" x2="1234.8094410394472" y2="377" fill="rgb(0, 0, 0)" stroke="rgb(66, 66, 66)" stroke-width="1px" opacity="0.25"></line><line x1="1457.9989928877433" y1="0" x2="1457.9989928877433" y2="377" fill="rgb(0, 0, 0)" stroke="rgb(66, 66, 66)" stroke-width="1px" opacity="0.25"></line></g><g><line x1="0" y1="365.5142984963685" x2="1657.22" y2="365.5142984963685" fill="rgb(0, 0, 0)" stroke="rgb(66, 66, 66)" stroke-width="1px" opacity="0.25"></line><line x1="0" y1="317.89098078428003" x2="1657.22" y2="317.89098078428003" fill="rgb(0, 0, 0)" stroke="rgb(66, 66, 66)" stroke-width="1px" opacity="0.25"></line><line x1="0" y1="270.26766307219157" x2="1657.22" y2="270.26766307219157" fill="rgb(0, 0, 0)" stroke="rgb(66, 66, 66)" stroke-width="1px" opacity="0.25"></line><line x1="0" y1="222.64434536010307" x2="1657.22" y2="222.64434536010307" fill="rgb(0, 0, 0)" stroke="rgb(66, 66, 66)" stroke-width="1px" opacity="0.25"></line><line x1="0" y1="175.0210276480146" x2="1657.22" y2="175.0210276480146" fill="rgb(0, 0, 0)" stroke="rgb(66, 66, 66)" stroke-width="1px" opacity="0.25"></line><line x1="0" y1="127.39770993592613" x2="1657.22" y2="127.39770993592613" fill="rgb(0, 0, 0)" stroke="rgb(66, 66, 66)" stroke-width="1px" opacity="0.25"></line><line x1="0" y1="79.77439222383765" x2="1657.22" y2="79.77439222383765" fill="rgb(0, 0, 0)" stroke="rgb(66, 66, 66)" stroke-width="1px" opacity="0.25"></line><line x1="0" y1="32.15107451174919" x2="1657.22" y2="32.15107451174919" fill="rgb(0, 0, 0)" stroke="rgb(66, 66, 66)" stroke-width="1px" opacity="0.25"></line></g></g></g><g><g><line x1="0" y1="270.26766307219157" x2="1657.22" y2="270.26766307219157" fill="rgb(0, 0, 0)" stroke="rgb(153, 153, 153)" stroke-width="1.5px"></line></g></g><g><g><line x1="118.86168179796664" y1="0" x2="118.86168179796664" y2="377" fill="rgb(0, 0, 0)" stroke="rgb(153, 153, 153)" stroke-width="1.5px"></line></g></g><g><g><g><g><g><path stroke="rgb(255, 112, 67)" stroke-width="2px" d="M121.09357731644958,279.59782228406937L123.32547283493255,278.9795786958L125.55736835341554,278.38850903674387L127.78926387189848,276.88172140832893L130.02115939038146,275.78783071021513L132.2530549088644,274.51343865797344L134.48495042734737,273.62244634692604L136.71684594583033,273.11374489882274L138.9487414643133,271.76510622362036L141.18063698279624,271.05626120315867L143.41253250127923,270.2372955792762L145.64442801976216,269.78444648644535L147.87632353824515,269.7366945657922L150.1082190567281,269.0402434598314L152.34011457521106,268.85944093087375L154.57201009369402,268.25245273936554L156.80390561217698,267.31405793620115L159.03580113065993,266.90276776937463L161.26769664914292,266.5411507450524L163.49959216762585,266.1978515350352L165.73148768610884,265.8127400320052L167.9633832045918,265.52730424575725L170.19527872307475,265.2390119275076L172.4271742415577,264.98706503351366L174.65906976004067,264.750653271524L176.89096527852362,264.6818124517896L179.1228607970066,264.3417856075653L181.35475631548954,264.1971795511527L183.58665183397252,263.82914773533923L185.81854735245548,263.57695602221696L188.05044287093844,263.36669375939954L190.2823383894214,263.4477424858905L192.51423390790436,263.3942184028065L194.7461294263873,262.9832383822429L196.9780249448703,262.4645043599903L199.20992046335323,262.29807194695894L201.4418159818362,261.8809952474393L203.67371150031917,261.6441520076256L205.90560701880213,261.7074412425936L208.13750253728512,261.238806625822L210.36939805576804,261.2313349452686L212.601293574251,260.99594068589664L214.833189092734,260.4944481489653L217.06508461121695,260.81123547261876L219.29698012969988,260.7237782884646L221.52887564818286,260.65539708062704L223.76077116666582,260.4623971722756L225.9926666851488,260.4468230340362L228.22456220363173,260.03464891083246L230.4564577221147,259.8606662229375L232.68835324059768,259.61984753347645L234.92024875908064,258.5576976577927L237.15214427756356,259.4070275543007L239.38403979604655,259.6133080646895L241.6159353145295,258.3788159091917L243.8478308330125,257.7320450676847L246.0797263514954,256.6602788264246L248.31162186997838,254.92357556174483L250.54351738846137,253.38998396768156L252.77541290694433,253.74804740432435L255.00730842542725,252.52321388181412L257.23920394391024,251.82479281111114L259.4710994623932,251.29632847387555L261.70299498087616,253.0594694674059L263.9348904993591,251.36588883308568L266.16678601784207,248.6448655001447L268.39868153632506,247.24102160590203L270.63057705480804,246.6753332349057L272.8624725732909,246.01959531733937L275.0943680917739,243.2197144072786L277.3262636102569,246.86006895217002L279.5581591287399,250.91971032670457L281.7900546472228,251.2230781873449L284.02195016570573,255.62362370439507L286.2538456841887,250.64077610851243L288.4857412026717,248.32795217702665L290.7176367211547,245.8376656692753L292.9495322396376,243.480895930353L295.18142775812055,244.87090689320965L297.41332327660353,241.93791601596936L299.6452187950865,241.96008349015418L301.87711431356945,242.34294865192393L304.10900983205244,241.29920907164947L306.34090535053537,240.2355612533986L308.57280086901835,240.90038798454492L310.8046963875013,242.64306441232486L313.03659190598427,242.71891197645343L315.26848742446725,242.06332673926545L317.5003829429502,239.77979873395049L319.7322784614331,236.79129137682247L321.9641739799161,241.42968927795408L324.1960694983991,240.73266657561777L326.42796501688207,239.32523723438376L328.659860535365,238.97382368676838L330.8917560538479,240.2536785622148L333.1236515723309,236.83193490781107L335.3555470908139,235.7379852444412L337.58744260929683,232.74081776371926L339.8193381277798,234.44981301244835L342.05123364626274,235.02514888109076L344.28312916474573,238.99753356893459L346.51502468322866,239.10493153339968L348.74692020171165,238.53932492232886L350.97881572019463,238.4997649136405L353.21071123867756,240.3246523629713L355.4426067571605,239.61093136349098L357.6745022756435,239.14246862898864L359.90639779412646,238.68737432732968L362.13829331260945,238.03427152099994L364.3701888310924,236.62223779817836L366.6020843495753,236.92518870393369L368.8339798680583,233.83812454233657L371.0658753865413,241.03698693821107L373.2977709050242,237.87550274097123L375.5296664235072,236.04547932542937L377.7615619419901,237.66787608633967L379.9934574604731,234.05706114118573L382.22535297895604,231.56894909782844L384.457248497439,231.28851299989356L386.689144015922,231.53608336212204L388.92103953440494,231.19102488992803L391.15293505288787,232.53259638767273L393.38483057137086,234.34575608207237L395.61672608985384,236.9406469373821L397.8486216083368,235.8744861170886L400.08051712681976,236.14610587485427L402.3124126453027,232.80278480269146L404.5443081637857,231.8175339109585L406.77620368226866,230.68501548719192L409.0080992007516,227.81995051095487L411.2399947192346,227.7524326074282L413.4718902377175,227.3738134590665L415.7037857562005,222.66198838198852L417.9356812746835,225.06599534045415L420.16757679316646,226.59217777937369L422.39947231164933,227.22937047759748L424.6313678301323,230.45349509184084L426.86326334861525,230.66175394132404L429.09515886709823,232.55346632143105L431.3270543855812,230.600058811219L433.5589499040642,227.12405318888128L435.79084542254714,228.1003873072057L438.0227409410301,228.4394223137944L440.254636459513,229.4915624022483L442.486531977996,229.1652715817381L444.71842749647897,227.59275185377157L446.95032301496195,226.28261982342676L449.1822185334449,225.50956260615683L451.41411405192787,227.19068000578815L453.64600957041085,222.32876936716713L455.87790508889384,225.81138417211935L458.10980060737677,226.7385345493594L460.3416961258597,225.30734478940582L462.5735916443426,226.66489846543305L464.8054871628256,226.74936730334468L467.0373826813086,224.68552272315338L469.2692781997916,223.74302467846414L471.5011737182745,222.52765824418003L473.7330692367575,219.39893269556956L475.9649647552405,219.70824101858554L478.19686027372336,220.8730426957936L480.42875579220635,225.51495651884514L482.66065131068933,225.15684376241947L484.89254682917226,222.81087769474598L487.12444234765525,216.4232750516457L489.35633786613823,221.0002649902506L491.5882333846212,224.25764661095113L493.82012890310415,221.94732958278396L496.0520244215871,221.40871030521245L498.28391994007,220.63744674504662L500.515815458553,222.53203702230212L502.747710977036,225.0714830518523L504.97960649551896,223.69522954174414L507.2115020140019,221.77178961072133L509.4433975324849,221.7454730803444L511.67529305096787,221.87814995963032L513.9071885694508,220.99553049899907L516.1390840879337,219.2296375548756L518.3709796064167,221.79668254218168L520.6028751248997,223.25876008876418L522.8347706433826,222.2382767024983L525.0666661618656,226.13969850508684L527.2985616803486,225.1284850767175L529.5304571988315,223.6317308692769L531.7623527173145,222.48304552053014L533.9942482357974,220.82891857534105L536.2261437542804,223.14975683857628L538.4580392727634,222.97957463029164L540.6899347912463,223.53797287583367L542.9218303097293,225.53968551494674L545.1537258282123,225.70415891714083L547.3856213466952,223.0200936787814L549.6175168651781,222.2019488251353L551.849412383661,219.74916376375847L554.0813079021441,219.6214126374632L556.313203420627,210.75893419742565L558.5450989391101,215.98333823115058L560.776994457593,219.38156716923385L563.0088899760759,218.1598420046304L565.240785494559,220.15624300916383L567.4726810130418,218.96395783389377L569.7045765315248,210.32649404380234L571.9364720500078,208.63151108941375L574.1683675684907,204.60676465038028L576.4002630869737,210.28521245050183L578.6321586054567,215.9935680858786L580.8640541239397,215.78589519703687L583.0959496424226,218.47327048479644L585.3278451609054,219.11766248936726L587.5597406793885,219.0579918635706L589.7916361978714,220.19410707843576L592.0235317163543,220.26615762822658L594.2554272348373,219.82660454010716L596.4873227533203,218.79497430274608L598.7192182718032,220.83757543061782L600.9511137902862,219.63379317831487L603.1830093087692,219.33355147180583L605.4149048272521,213.1657247354058L607.6468003457351,215.27674916505222L609.878695864218,215.85458572082888L612.1105913827009,219.01860627708297L614.342486901184,210.92083073984992L616.5743824196669,206.86220460007084L618.80627793815,208.60278785257586L621.0381734566329,201.57452764715953L623.2700689751158,205.9414725260973L625.5019644935988,202.18608668828227L627.7338600120817,208.5303667947869L629.9657555305647,209.42954788053754L632.1976510490476,206.12445173015536L634.4295465675306,209.0388726713048L636.6614420860136,207.07312445669936L638.8933376044965,209.7486746769451L641.1252331229796,206.05148526799178L643.3571286414625,201.6967815675728L645.5890241599454,208.73185084034608L647.8209196784284,207.03920210777645L650.0528151969113,209.57348589774602L652.2847107153943,213.9105303991425L654.5166062338773,216.61583001610163L656.7485017523602,214.34286779970978L658.9803972708432,209.9581170538627L661.2122927893262,207.6928389357815L663.4441883078091,207.79051132644494L665.676083826292,205.500527131154L667.9079793447751,202.04402508780882L670.139874863258,197.75112548831123L672.3717703817409,191.67114783631328L674.603665900224,197.70373418178525L676.8355614187069,205.4806469890726L679.0674569371898,206.341838667099L681.2993524556728,204.63642188144888L683.5312479741557,204.1499195044801L685.7631434926387,209.10615913870137L687.9950390111217,212.78495561571984L690.2269345296047,213.14190163643826L692.4588300480876,212.04390645245365L694.6907255665706,213.69326191482492L696.9226210850536,203.16549960958451L699.1545166035364,203.62698264937774L701.3864121220195,204.48658666830346L703.6183076405024,209.0513295354815L705.8502031589853,210.51683139296915L708.0820986774684,200.5791196662593L710.3139941959513,199.93209375955206L712.5458897144343,198.7217074447676L714.7777852329173,202.73354232357423L717.0096807514002,208.3297908675858L719.2415762698831,206.05778454541974L721.473471788366,203.55336805170919L723.7053673068491,198.8980219679403L725.937262825332,199.0399646087661L728.169158343815,200.06955953130011L730.401053862298,183.65385327894992L732.6329493807809,189.03922304060794L734.864844899264,191.5266735485546L737.0967404177468,191.26944618547213L739.3286359362298,190.39174342897113L741.5605314547128,191.7795041543233L743.7924269731957,192.33481231645507L746.0243224916787,191.89788247305856L748.2562180101617,194.09591772081083L750.4881135286446,188.20191940453643L752.7200090471276,188.95781317939466L754.9519045656104,189.4556155274052L757.1838000840935,195.3774643568552L759.4156956025764,198.73507505206678L761.6475911210595,201.11159205461007L763.8794866395424,203.14785332281716L766.1113821580253,198.03261610281106L768.3432776765084,196.4048552196004L770.5751731949913,190.35355108483404L772.8070687134742,187.51225357104357L775.0389642319572,186.1411086095412L777.2708597504401,172.6981523313405L779.5027552689231,172.25279828545743L781.734650787406,179.81743287899795L783.9665463058891,166.4252845887884L786.198441824372,173.6743831857633L788.430337342855,177.36192066552113L790.6622328613379,180.4575208454824L792.8941283798208,167.07425370023913L795.1260238983039,173.56531268641425L797.3579194167868,186.4299034475915L799.5898149352697,193.19552010313276L801.8217104537528,189.75546743635783L804.0536059722357,187.54495867262918L806.2855014907187,182.62036644568317L808.5173970092015,175.41553520685864L810.7492925276845,165.83250963957568L812.9811880461675,174.29500204272676L815.2130835646504,154.77549570421263L817.4449790831335,170.49761623873593L819.6768746016164,171.05113670673555L821.9087701200993,164.22284598307718L824.1406656385824,158.29585894623534L826.3725611570652,157.73077964558306L828.6044566755482,166.41865578206617L830.8363521940313,167.92930217170814L833.0682477125142,170.35427913037688L835.300143230997,174.22099510632796L837.53203874948,157.91296515076522L839.763934267963,166.09819745380815L841.9958297864459,161.869142057485L844.227725304929,167.02740617025148L846.4596208234119,168.3761201256665L848.6915163418948,162.22047897727552L850.9234118603779,161.619999725946L853.1553073788608,144.4481636307795L855.3872028973437,152.14838229977542L857.6190984158268,149.51609901464838L859.8509939343097,144.74211829051396L862.0828894527928,154.09555828775294L864.3147849712757,164.0588715786217L866.5466804897586,165.2862679296538L868.7785760082417,167.79368914760144L871.0104715267245,159.81841586597116L873.2423670452074,158.27218105368627L875.4742625636903,167.62562382923412L877.7061580821734,165.52540071959436L879.9380536006563,156.1942481133002L882.1699491191392,171.87077378557757L884.4018446376223,181.0373227208293L886.6337401561052,179.9278192385917L888.8656356745882,165.23350972653432L891.0975311930712,154.56032967590133L893.3294267115541,159.1843909019018L895.5613222300371,158.2579836913252L897.7932177485201,153.49589935431547L900.025113267003,167.77669199630813L902.257008785486,158.16592816150097L904.488904303969,151.79868473257034L906.720799822452,161.00286843818594L908.9526953409347,153.6785061970776L911.1845908594178,160.72734132618575L913.4164863779007,160.76600263384142L915.6483818963837,159.2328959046771L917.8802774148667,156.71620900229124L920.1121729333496,161.74592130548305L922.3440684518326,164.82190878042192L924.5759639703156,170.1475263746926L926.8078594887985,166.01992819724356L929.0397550072815,172.09567014046493L931.2716505257645,153.8902384280339L933.5035460442475,151.74895288509404L935.7354415627304,163.69153189359298L937.9673370812134,167.97641212938223L940.1992325996964,173.92278243513866L942.4311281181793,177.52003782874587L944.6630236366622,164.55206384357447L946.8949191551451,145.38994599254278L949.1268146736281,152.7850785353796L951.3587101921111,139.77517365804857L953.590605710594,149.45976035701247L955.822501229077,151.94011819659903L958.05439674756,148.02532449643994L960.286292266043,152.44332234311426L962.5181877845259,157.44248195847015L964.7500833030089,150.34884280374098L966.9819788214919,157.8974839374621L969.2138743399748,160.49363396611798L971.4457698584578,157.6894303676988L973.6776653769408,164.66028071382436L975.9095608954237,161.95580342957024L978.1414564139068,144.98389271271657L980.3733519323895,130.86681142635368L982.6052474508725,129.0529851557697L984.8371429693555,128.39929286129504L987.0690384878385,123.51751012588325L989.3009340063214,126.55173210564381L991.5328295248044,138.25918753117784L993.7647250432874,142.19472298970365L995.9966205617703,135.29171610006043L998.2285160802533,144.4071867424225L1000.4604115987363,150.2605949019051L1002.6923071172192,149.43481944353553L1004.9242026357023,150.0659083977807L1007.1560981541852,149.6517660757882L1009.3879936726681,156.2415897259306L1011.6198891911512,151.75878820499977L1013.8517847096341,135.40533680490418L1016.0836802281169,127.96261903531563L1018.3155757465998,139.50378307342413L1020.5474712650829,137.0206555319206L1022.7793667835658,131.21739815828903L1025.0112623020489,127.61041508493602L1027.2431578205317,143.34287852050628L1029.4750533390147,128.18407004152982L1031.7069488574978,136.66265829219927L1033.9388443759806,123.49754978966591L1036.1707398944636,132.8667741019831L1038.4026354129467,125.97421229615954L1040.6345309314297,119.10100879784021L1042.8664264499125,127.66593950731438L1045.0983219683956,113.89015671588234L1047.3302174868786,108.59422064663761L1049.5621130053614,125.91211126763186L1051.7940085238445,122.6595295769308L1054.0259040423273,124.71873359750198L1056.2577995608103,118.87908316419718L1058.4896950792931,128.74810305831764L1060.7215905977762,127.98698454435626L1062.9534861162592,119.5738650501408L1065.185381634742,112.51796592878202L1067.417277153225,101.13748727033442L1069.6491726717081,115.75427303604043L1071.881068190191,119.25797990049128L1074.112963708674,121.68507387557108L1076.344859227157,130.76395035101095L1078.5767547456398,115.46102003977637L1080.808650264123,113.41334762613597L1083.040545782606,120.96163675674786L1085.272441301089,88.12001962586221L1087.5043368195718,96.75755065435743L1089.7362323380546,101.09780741353457L1091.9681278565376,83.2667156139565L1094.2000233750205,81.97997912744415L1096.4319188935035,99.87116199259312L1098.6638144119866,106.37376210094318L1100.8957099304696,95.95329534444913L1103.1276054489524,102.32077591994029L1105.3595009674355,104.71127997395848L1107.5913964859185,89.84679258907086L1109.8232920044013,103.37723333847381L1112.0551875228844,100.10485127215951L1114.2870830413674,85.64439957520682L1116.5189785598502,89.8675366565428L1118.7508740783333,79.75650953664737L1120.9827695968163,104.17284528198657L1123.214665115299,128.22035738925956L1125.446560633782,109.93027923799883L1127.678456152265,113.38282467359122L1129.910351670748,110.54851655073448L1132.1422471892308,110.7709382251972L1134.3741427077139,112.31630749485142L1136.606038226197,123.60879182650488L1138.8379337446797,126.87668439188433L1141.0698292631628,137.3413824157179L1143.3017247816458,134.0211059067988L1145.5336203001289,133.69522710258238L1147.7655158186117,100.87462864865606L1149.9974113370947,106.26327704063519L1152.2293068555778,112.55674675046615L1154.4612023740606,113.27699514757691L1156.6930978925436,114.9925030719277L1158.9249934110267,108.59229703396844L1161.1568889295095,112.64913334364434L1163.3887844479923,102.54893138121074L1165.6206799664753,103.1984368802408L1167.8525754849584,96.50743879700642L1170.0844710034412,90.64335538364303L1172.3163665219242,92.15677508604787L1174.5482620404073,91.1079399033049L1176.78015755889,89.52427727320959L1179.0120530773731,100.66550751688507L1181.2439485958562,80.02072232090907L1183.475844114339,79.09399683588701L1185.707739632822,96.61408008826074L1187.939635151305,88.91966940567018L1190.1715306697881,93.70091968477016L1192.403426188271,106.5589281584314L1194.635321706754,101.51530574344238L1196.8672172252368,82.46522877817779L1199.0991127437198,80.59944116303548L1201.3310082622027,86.06321791402642L1203.5629037806857,91.68661843870439L1205.7947992991687,80.61882370999436L1208.0266948176516,73.36735689489505L1210.2585903361346,80.7287841851127L1212.4904858546176,93.60642987868944L1214.7223813731005,79.91397670914822L1216.9542768915835,82.17456503972029L1219.1861724100665,102.67325941530531L1221.4180679285494,95.22444303144371L1223.6499634470324,93.3908468845081L1225.8818589655154,79.06326038127467L1228.1137544839985,80.05005241347416L1230.3456500024813,90.32968826818163L1232.5775455209643,71.13384420258757L1234.8094410394472,70.4486078550849L1237.04133655793,80.50617233638675L1239.273232076413,65.05714758751681L1241.505127594896,53.454283184595006L1243.737023113379,62.649205267770284L1245.968918631862,83.60180476840873L1248.200814150345,80.53565048119881L1250.432709668828,57.08135477340114L1252.6646051873108,54.681152529591024L1254.8965007057939,60.29054371103489L1257.128396224277,61.26696098461032L1259.3602917427597,68.18747415898237L1261.5921872612428,64.56176415756885L1263.8240827797258,59.94106217007519L1266.0559782982086,55.93898040517956L1268.2878738166917,62.09868543182344L1270.5197693351745,60.61049638197644L1272.7516648536575,59.80839396842325L1274.9835603721403,65.19264286640671L1277.2154558906234,55.74779740216362L1279.4473514091064,56.49561498603341L1281.6792469275892,57.914560874019855L1283.9111424460723,69.47503594873277L1286.1430379645553,83.15461303050857L1288.3749334830384,73.33864847656486L1290.6068290015212,83.39178340998549L1292.8387245200042,76.01026510408576L1295.0706200384873,62.711365861837535L1297.30251555697,68.70576112007687L1299.5344110754531,49.6677887822333L1301.7663065939362,59.34675677363626L1303.998202112419,79.84461144238385L1306.2300976309018,76.18268788637745L1308.4619931493849,73.18167517083096L1310.693888667868,61.1353862713171L1312.9257841863507,60.554658429489336L1315.1576797048338,59.18969177625597L1317.3895752233168,72.77487603940823L1319.6214707417996,45.07300555616344L1321.8533662602827,51.275079236857735L1324.0852617787657,67.90603287766588L1326.3171572972485,83.16982249151563L1328.5490528157316,69.32691744066459L1330.7809483342146,81.79027181425805L1333.0128438526976,63.61430311946242L1335.2447393711805,74.61074501498598L1337.4766348896635,60.848403577614604L1339.7085304081465,61.69242978698039L1341.9404259266291,67.48410363571769L1344.1723214451122,65.17301436437984L1346.4042169635952,81.19299734858244L1348.6361124820783,90.50351619062819L1350.868008000561,80.01060954256904L1353.0999035190441,74.13408678300254L1355.3317990375272,63.722825012236854L1357.56369455601,68.24542549960479L1359.795590074493,62.90890689409329L1362.027485592976,67.07765172983596L1364.2593811114589,81.6899873490715L1366.491276629942,80.5745910854641L1368.723172148425,90.5719010170515L1370.9550676669078,88.26684877234311L1373.1869631853908,97.3980542114544L1375.4188587038739,87.20167755517407L1377.650754222357,90.04516241507758L1379.8826497408395,89.9257432014647L1382.1145452593225,94.22339155194241L1384.3464407778056,79.2939409963211L1386.5783362962884,97.33314001512437L1388.8102318147714,101.52829817451298L1391.0421273332545,79.51378033730312L1393.2740228517375,67.7104458325189L1395.5059183702203,68.12004296239942L1397.7378138887034,77.01476428670534L1399.9697094071864,79.48634412424855L1402.2016049256692,96.40514755966561L1404.4335004441523,98.10312795200844L1406.6653959626353,101.97761192590976L1408.8972914811181,99.83368642088811L1411.1291869996012,88.5109901395364L1413.3610825180842,95.05111652201794L1415.592978036567,75.6274132118733L1417.8248735550499,70.30839468158801L1420.056769073533,69.64369356306416L1422.288664592016,68.0188108099879L1424.5205601104988,68.59763259225191L1426.7524556289818,89.50754296335876L1428.9843511474648,75.83986993662813L1431.216246665948,82.1681276614393L1433.4481421844307,92.52606632015755L1435.6800377029138,93.57342631414294L1437.9119332213968,77.31588233224026L1440.1438287398796,76.207040235669L1442.3757242583627,89.13925603549686L1444.6076197768457,90.38131239559982L1446.8395152953285,71.22692897279289L1449.0714108138116,74.07991067713118L1451.3033063322944,79.18629699485948L1453.5352018507774,84.42900021190344L1455.7670973692602,67.92878858669876L1457.9989928877433,68.47919523400047L1460.2308884062263,72.36445129154822L1462.4627839247091,64.30565267497533L1464.6946794431922,65.66156758261485L1466.9265749616752,60.43357081931068L1469.158470480158,59.140554385947766L1471.390365998641,65.0730922558997L1473.6222615171241,74.66121425893436L1475.8541570356072,89.40835444090506L1478.08605255409,85.52205177672413L1480.317948072573,84.9639422799338L1482.549843591056,74.46229468520744L1484.7817391095389,81.77018074320918L1487.0136346280217,62.647427698314814L1489.2455301465047,83.6770680804415L1491.4774256649878,69.99502625144177L1493.7093211834706,86.79675141601496L1495.9412167019536,81.37882659786318L1498.1731122204367,84.50686979894579L1500.4050077389195,81.7938705804408L1502.6369032574025,86.61157782914671L1504.8687987758856,97.92758793276923" style="fill: none;" fill="none"></path></g></g></g></g><g opacity="0.2"><g><g><g><path stroke="rgb(255, 112, 67)" stroke-width="2px" d="M121.09357731644958,279.59782228406937L123.32547283493255,278.6086325428384L125.55736835341554,277.82108216405004L127.78926387189848,275.109739157313L130.02115939038146,274.3596470147577L132.2530549088644,272.7504956685844L134.48495042734737,272.3483130862513L136.71684594583033,272.3720533039541L138.9487414643133,269.77612613727314L141.18063698279624,270.0037089594071L143.41253250127923,269.01627510138525L145.64442801976216,269.1076372319645L147.87632353824515,269.66522260311854L150.1082190567281,267.99693122110904L152.34011457521106,268.58844966402296L154.57201009369402,267.34239854720346L156.80390561217698,265.90686282868603L159.03580113065993,266.28593694566365L161.26769664914292,265.9987802972831L163.49959216762585,265.68293409891703L165.73148768610884,265.2350938978903L167.9633832045918,265.0991599587714L170.19527872307475,264.80657914196206L172.4271742415577,264.60914767707385L174.65906976004067,264.39603730885324L176.89096527852362,264.57855151576257L179.1228607970066,263.83174621126454L181.35475631548954,263.9802706885381L183.58665183397252,263.2771003506282L185.81854735245548,263.1986685919161L188.05044287093844,263.0513004348987L190.2823383894214,263.5693155595011L192.51423390790436,263.31393228457L194.7461294263873,262.36676838083525L196.9780249448703,261.6864033489049L199.20992046335323,262.04842333170353L201.4418159818362,261.25538020461266L203.67371150031917,261.28888715010373L205.90560701880213,261.80237509469293L208.13750253728512,260.5358547022308L210.36939805576804,261.22012742445355L212.601293574251,260.64284929712187L214.833189092734,259.7422093439303L217.06508461121695,261.2864164579617L219.29698012969988,260.59259251225603L221.52887564818286,260.55282526888146L223.76077116666582,260.17289730976654L225.9926666851488,260.4234618266779L228.22456220363173,259.41638772604074L230.4564577221147,259.5996921910985L232.68835324059768,259.25861949928793L234.92024875908064,256.96447284427467L237.15214427756356,260.6810223990592L239.38403979604655,259.92272883027204L241.6159353145295,256.527077675947L243.8478308330125,256.7618888054247L246.0797263514954,255.05262946453502L248.31162186997838,252.3185206647259L250.54351738846137,251.08959657658698L252.77541290694433,254.2851425592884L255.00730842542725,250.68596359804891L257.23920394391024,250.77716120505673L259.4710994623932,250.50363196802206L261.70299498087616,255.7041809577015L263.9348904993591,248.82551788160538L266.16678601784207,244.5633305007333L268.39868153632506,245.13525576453807L270.63057705480804,245.82680067841125L272.8624725732909,245.0359884409898L275.0943680917739,239.01989304218748L277.3262636102569,252.32060076950722L279.5581591287399,257.00917238850633L281.7900546472228,251.67812997830546L284.02195016570573,262.22444197997027L286.2538456841887,243.1665047146884L288.4857412026717,244.858716279798L290.7176367211547,242.10223590764826L292.9495322396376,239.9457413219695L295.18142775812055,246.95592333749462L297.41332327660353,237.538429700109L299.6452187950865,241.99333470143142L301.87711431356945,242.91724639457857L304.10900983205244,239.73359970123775L306.34090535053537,238.64008952602234L308.57280086901835,241.89762808126432L310.8046963875013,245.2570790539949L313.03659190598427,242.83268332264626L315.26848742446725,241.07994888348352L317.5003829429502,236.3545067259779L319.7322784614331,232.3085303411304L321.9641739799161,248.38728612965159L324.1960694983991,239.6871325221133L326.42796501688207,237.21409322253277L328.659860535365,238.4467033653453L330.8917560538479,242.1734608753843L333.1236515723309,231.69931942620548L335.3555470908139,234.0970607493864L337.58744260929683,228.24506654263635L339.8193381277798,237.013305885542L342.05123364626274,235.88815268405438L344.28312916474573,244.95611060070038L346.51502468322866,239.26602848009722L348.74692020171165,237.69091500572276L350.97881572019463,238.44042490060787L353.21071123867756,243.0619835369675L355.4426067571605,238.5403498642704L357.6745022756435,238.4397745272352L359.90639779412646,238.00473287484132L362.13829331260945,237.05461731150527L364.3701888310924,234.50418721394598L366.6020843495753,237.37961506256661L368.8339798680583,229.207528299941L371.0658753865413,251.83528053202275L373.2977709050242,233.1332764451116L375.5296664235072,233.30044420211655L377.7615619419901,240.10147122770513L379.9934574604731,228.64083872345483L382.22535297895604,227.8367810327925L384.457248497439,230.86785885299125L386.689144015922,231.90743890546486L388.92103953440494,230.673437181637L391.15293505288787,234.5449536342897L393.38483057137086,237.06549562367186L395.61672608985384,240.8329832203467L397.8486216083368,234.27524488664827L400.08051712681976,236.55353551150287L402.3124126453027,227.78780319444724L404.5443081637857,230.33965757335903L406.77620368226866,228.986237851542L409.0080992007516,223.52235304659933L411.2399947192346,227.65115575213815L413.4718902377175,226.80588473652398L415.7037857562005,215.5942507663715L417.9356812746835,228.6720057781526L420.16757679316646,228.8814514377529L422.39947231164933,228.1851595249333L424.6313678301323,235.28968201320583L426.86326334861525,230.97414221554874L429.09515886709823,235.39103489159166L431.3270543855812,227.66994754590087L433.5589499040642,221.9100447553747L435.79084542254714,229.56488848469232L438.0227409410301,228.94797482367753L440.254636459513,231.06977253492906L442.486531977996,228.67583535097276L444.71842749647897,225.2339722618218L446.95032301496195,224.31742177790963L449.1822185334449,224.34997678025186L451.41411405192787,229.71235610523522L453.64600957041085,215.0359034092356L455.87790508889384,231.03530637954756L458.10980060737677,228.12926011521952L460.3416961258597,223.16056014947551L462.5735916443426,228.70122897947388L464.8054871628256,226.87607056021204L467.0373826813086,221.58975585286646L469.2692781997916,222.32927761143029L471.5011737182745,220.70460859275389L473.7330692367575,214.70584437265387L475.9649647552405,220.1722035031094L478.19686027372336,222.62024521160572L480.42875579220635,232.47782725342248L482.66065131068933,224.61967462778094L484.89254682917226,219.29192859323572L487.12444234765525,206.8418710869953L489.35633786613823,227.865749898158L491.5882333846212,229.14371904200183L493.82012890310415,218.48185404053334L496.0520244215871,220.60078138885515L498.28391994007,219.48055140479772L500.515815458553,225.3739224381855L502.747710977036,228.88065209617753L504.97960649551896,221.63084927658196L507.2115020140019,218.88662971418714L509.4433975324849,221.7059982847789L511.67529305096787,222.07716527855936L513.9071885694508,219.67160130805217L516.1390840879337,216.58079813869034L518.3709796064167,225.64725002314088L520.6028751248997,225.45187640863782L522.8347706433826,220.70755162309953L525.0666661618656,231.9918312089697L527.2985616803486,223.61166493416346L529.5304571988315,221.38659955811602L531.7623527173145,220.76001749741002L533.9942482357974,218.34772815755744L536.2261437542804,226.63101423342908L538.4580392727634,222.72430131786464L540.6899347912463,224.3755702441468L542.9218303097293,228.54225447361645L545.1537258282123,225.95086902043192L547.3856213466952,218.99399582124224L549.6175168651781,220.97473154466618L551.849412383661,216.0699861716932L554.0813079021441,219.42978594802025L556.313203420627,197.46521653736937L558.5450989391101,223.81994428173792L560.776994457593,224.4789105763587L563.0088899760759,216.3272542577253L565.240785494559,223.150844515964L567.4726810130418,217.17553007098869L569.7045765315248,197.37029835866522L571.9364720500078,206.08903665783083L574.1683675684907,198.5696449918301L576.4002630869737,218.80288415068418L578.6321586054567,224.5561015389436L580.8640541239397,215.4743858637743L583.0959496424226,222.50433341643583L585.3278451609054,220.08425049622338L587.5597406793885,218.96848592487558L589.7916361978714,221.89827990073363L592.0235317163543,220.3742334529128L594.2554272348373,219.16727490792798L596.4873227533203,217.2475289467045L598.7192182718032,223.90147712242543L600.9511137902862,217.82811979986047L603.1830093087692,218.88318891204227L605.4149048272521,203.91398463080577L607.6468003457351,218.44328580952185L609.878695864218,216.721340554494L612.1105913827009,223.76463711146408L614.342486901184,198.7741674340003L616.5743824196669,200.77426539040218L618.80627793815,211.2136627313335L621.0381734566329,191.03213733903488L623.2700689751158,212.49188984450396L625.5019644935988,196.55300793155973L627.7338600120817,218.0467869545439L629.9657555305647,210.77831950916345L632.1976510490476,201.16680750458204L634.4295465675306,213.41050408302894L636.6614420860136,204.12450213479124L638.8933376044965,213.7620000073137L641.1252331229796,200.50570115456182L643.3571286414625,195.1647260169443L645.5890241599454,219.28445474950604L647.8209196784284,204.50022900892205L650.0528151969113,213.37491158270026L652.2847107153943,220.4160971512373L654.5166062338773,220.67377944154023L656.7485017523602,210.933424475122L658.9803972708432,203.38099093509217L661.2122927893262,204.29492175865963L663.4441883078091,207.9370199124402L665.676083826292,202.06555083821752L667.9079793447751,196.85927202279103L670.139874863258,191.3117760890649L672.3717703817409,182.5511813583164L674.603665900224,206.75261369999313L676.8355614187069,217.1460162000036L679.0674569371898,207.63362618413862L681.2993524556728,202.07829670297383L683.5312479741557,203.4201659390268L685.7631434926387,216.54051859003337L687.9950390111217,218.30315033124748L690.2269345296047,213.67732066751586L692.4588300480876,210.39691367647677L694.6907255665706,216.1672951083818L696.9226210850536,187.3738561517239L699.1545166035364,204.3192072090676L701.3864121220195,205.77599269669204L703.6183076405024,215.8984438362485L705.8502031589853,212.71508417920063L708.0820986774684,185.67255207619453L710.3139941959513,198.9615548994913L712.5458897144343,196.9061279725908L714.7777852329173,208.75129464178409L717.0096807514002,216.72416368360334L719.2415762698831,202.6497750621706L721.473471788366,199.79674331114344L723.7053673068491,191.9150028422869L725.937262825332,199.25287857000484L728.169158343815,201.61395191510115L730.401053862298,159.03029390042457L732.6329493807809,197.11727768309495L734.864844899264,195.2578493104746L737.0967404177468,190.88360514084837L739.3286359362298,189.0751892942197L741.5605314547128,193.86114524235145L743.7924269731957,193.16777455965274L746.0243224916787,191.24248770796373L748.2562180101617,197.3929705924393L750.4881135286446,179.3609219301248L752.7200090471276,190.09165384168207L754.9519045656104,190.20231904942094L757.1838000840935,204.26023760103027L759.4156956025764,203.77149109488408L761.6475911210595,204.67636755842508L763.8794866395424,206.20224522512768L766.1113821580253,190.359760272802L768.3432776765084,193.96321389478433L770.5751731949913,181.27659488268463L772.8070687134742,183.25030730035778L775.0389642319572,184.0843911672876L777.2708597504401,152.53371791403956L779.5027552689231,171.5847672166328L781.734650787406,191.16438476930867L783.9665463058891,146.3370621534741L786.198441824372,184.54803108122564L788.430337342855,182.89322688515784L790.6622328613379,185.10092111542426L792.8941283798208,146.9993529823742L795.1260238983039,183.30190116567695L797.3579194167868,205.7267895893574L799.5898149352697,203.34394508644465L801.8217104537528,184.5953884361954L804.0536059722357,184.22919552703624L806.2855014907187,175.2334781052641L808.5173970092015,164.60828834862178L810.7492925276845,151.4579712886513L812.9811880461675,186.98874064745337L815.2130835646504,125.49623619644144L817.4449790831335,194.08079704052093L819.6768746016164,171.8814174087349L821.9087701200993,153.98040989758957L824.1406656385824,149.40537839097257L826.3725611570652,156.8831606946046L828.6044566755482,179.45046998679078L830.8363521940313,170.1952717561711L833.0682477125142,173.99174456837997L835.300143230997,180.0210690702546L837.53203874948,133.45092021742104L839.763934267963,178.37604590837267L841.9958297864459,155.5255589630001L844.227725304929,174.76480233940126L846.4596208234119,170.399191058789L848.6915163418948,152.987017254689L850.9234118603779,160.71928084895174L853.1553073788608,118.69040948802984L855.3872028973437,163.6987103032693L857.6190984158268,145.56767408695788L859.8509939343097,137.5811472043123L862.0828894527928,168.12571828361138L864.3147849712757,179.00384151492486L866.5466804897586,167.12736245620195L868.7785760082417,171.55482097452287L871.0104715267245,147.85550594352577L873.2423670452074,155.95282883525894L875.4742625636903,181.65578799255587L877.7061580821734,162.37506605513477L879.9380536006563,142.197519203859L882.1699491191392,195.38556229399362L884.4018446376223,194.78714612370698L886.6337401561052,178.26356401523526L888.8656356745882,143.1920454584483L891.0975311930712,138.55055959995187L893.3294267115541,166.12048274090242L895.5613222300371,156.86837287546032L897.7932177485201,146.35277284880087L900.025113267003,189.1978809592971L902.257008785486,143.7497824092903L904.488904303969,142.24781958917444L906.720799822452,174.8091439966094L908.9526953409347,142.69196283541507L911.1845908594178,171.30059401984795L913.4164863779007,160.82399459532488L915.6483818963837,156.9332358109306L917.8802774148667,152.94117864871245L920.1121729333496,169.29048976027082L922.3440684518326,169.4358899928302L924.5759639703156,178.13595276609857L926.8078594887985,159.82853093106993L929.0397550072815,181.2092830552971L931.2716505257645,126.58209085938729L933.5035460442475,148.53702457068428L935.7354415627304,181.60540040634135L937.9673370812134,174.40373248306608L940.1992325996964,182.84233789377328L942.4311281181793,182.9159209191567L944.6630236366622,145.10010286581735L946.8949191551451,116.64676921599525L949.1268146736281,163.87777734963484L951.3587101921111,120.26031634205204L953.590605710594,163.98664040545836L955.822501229077,155.66065495597886L958.05439674756,142.15313394620134L960.286292266043,159.07031911312572L962.5181877845259,164.94122138150405L964.7500833030089,139.7083840716472L966.9819788214919,169.22044563804383L969.2138743399748,164.38785900910176L971.4457698584578,153.48312497007012L973.6776653769408,175.11655623301263L975.9095608954237,157.89908750318898L978.1414564139068,119.52602663743608L980.3733519323895,109.69118949680932L982.6052474508725,126.33224574989374L984.8371429693555,127.41875441958307L987.0690384878385,116.19483602276556L989.3009340063214,131.10306507528466L991.5328295248044,155.8203706694789L993.7647250432874,148.09802617749233L995.9966205617703,124.93720576559565L998.2285160802533,158.08039270596555L1000.4604115987363,159.04070714112913L1002.6923071172192,148.19615625598112L1004.9242026357023,151.01254182914846L1007.1560981541852,149.03055259279944L1009.3879936726681,166.12632520114417L1011.6198891911512,145.0345859236036L1013.8517847096341,110.87515970476076L1016.0836802281169,116.7985423809328L1018.3155757465998,156.81552913058692L1020.5474712650829,133.29596421966522L1022.7793667835658,122.51251209784166L1025.0112623020489,122.19994047490651L1027.2431578205317,166.9415736738617L1029.4750533390147,105.44585732306511L1031.7069488574978,149.38054066820342L1033.9388443759806,103.74988703586588L1036.1707398944636,146.9206105704589L1038.4026354129467,115.63536958742408L1040.6345309314297,108.79120355036123L1042.8664264499125,140.51333557152566L1045.0983219683956,93.22648252873421L1047.3302174868786,100.65031654277055L1049.5621130053614,151.88894719912318L1051.7940085238445,117.7806570408791L1054.0259040423273,127.80753962835874L1056.2577995608103,110.11960751424002L1058.4896950792931,143.5516328994983L1060.7215905977762,126.84530677341428L1062.9534861162592,106.95418580881758L1065.185381634742,101.9341172467438L1067.417277153225,84.06676928266303L1069.6491726717081,137.67945168459934L1071.881068190191,124.51354019716757L1074.112963708674,125.32571483819075L1076.344859227157,144.3822650641708L1078.5767547456398,92.50662457292447L1080.808650264123,110.34183900567545L1083.040545782606,132.28407045266565L1085.272441301089,38.85759392953369L1087.5043368195718,109.71384719710022L1089.7362323380546,107.60819255230022L1091.9681278565376,56.520077914589315L1094.2000233750205,80.04987439767575L1096.4319188935035,126.70793629031655L1098.6638144119866,116.12766226346828L1100.8957099304696,80.32259520970798L1103.1276054489524,111.87199678317705L1105.3595009674355,108.29703605498575L1107.5913964859185,67.55006151173946L1109.8232920044013,123.67289446257816L1112.0551875228844,95.19627817268807L1114.2870830413674,63.95372202977787L1116.5189785598502,96.2022422785467L1118.7508740783333,64.58996885680418L1120.9827695968163,140.7973488999954L1123.214665115299,164.29162555016907L1125.446560633782,82.49516201110782L1127.678456152265,118.56164282697972L1129.910351670748,106.2970543664494L1132.1422471892308,111.10457073689129L1134.3741427077139,114.63436139933272L1136.606038226197,140.54751832398503L1138.8379337446797,131.77852323995356L1141.0698292631628,153.03842945146832L1143.3017247816458,129.04069114342008L1145.5336203001289,133.20640889625764L1147.7655158186117,51.64373096776667L1149.9974113370947,114.34624962860384L1152.2293068555778,121.99695131521268L1154.4612023740606,114.35736774324306L1156.6930978925436,117.56576495845391L1158.9249934110267,98.99198797702952L1161.1568889295095,118.73438780815826L1163.3887844479923,87.39862843756025L1165.6206799664753,104.17269512878585L1167.8525754849584,86.47094167215488L1170.0844710034412,81.84723026359798L1172.3163665219242,94.42690463965504L1174.5482620404073,89.53468712919054L1176.78015755889,87.14878332806666L1179.0120530773731,117.37735288239814L1181.2439485958562,49.05354452694518L1183.475844114339,77.70390860835386L1185.707739632822,122.89420496682132L1187.939635151305,77.37805338178443L1190.1715306697881,100.87279510342017L1192.403426188271,125.84594086892322L1194.635321706754,93.9498721209588L1196.8672172252368,53.890113330280904L1199.0991127437198,77.80075974032205L1201.3310082622027,94.25888304051277L1203.5629037806857,100.12171922572148L1205.7947992991687,64.01713161692935L1208.0266948176516,62.490156672246016L1210.2585903361346,91.7709251204392L1212.4904858546176,112.92289841905455L1214.7223813731005,59.37529695483637L1216.9542768915835,85.56544753557834L1219.1861724100665,133.4213009786829L1221.4180679285494,84.05121845565132L1223.6499634470324,90.64045266410464L1225.8818589655154,57.571880626424516L1228.1137544839985,81.53024046177349L1230.3456500024813,105.74914205024281L1232.5775455209643,42.34007810419656L1234.8094410394472,69.42075333383089L1237.04133655793,95.59251905833939L1239.273232076413,41.883610464212026L1241.505127594896,36.04998658021221L1243.737023113379,76.44158839253318L1245.968918631862,115.03070401936638L1248.200814150345,75.936419050384L1250.432709668828,21.899911211704563L1252.6646051873108,51.080849163875946L1254.8965007057939,68.70463048320055L1257.128396224277,62.73158689497342L1259.3602917427597,78.56824392054055L1261.5921872612428,59.12319915544856L1263.8240827797258,53.01000918883469L1266.0559782982086,49.93585775783606L1268.2878738166917,71.3382429717893L1270.5197693351745,58.37821280720589L1272.7516648536575,58.60524034809352L1274.9835603721403,73.269016213382L1277.2154558906234,41.58052920579895L1279.4473514091064,57.617341361838164L1281.6792469275892,60.042979705999414L1283.9111424460723,86.81574856080209L1286.1430379645553,103.67397865317233L1288.3749334830384,58.61470164564921L1290.6068290015212,98.47148581011646L1292.8387245200042,64.93798764523609L1295.0706200384873,42.763016998465204L1297.30251555697,77.69735400743585L1299.5344110754531,21.110830275467933L1301.7663065939362,73.86520876074081L1303.998202112419,110.59139344550525L1306.2300976309018,70.68980255236784L1308.4619931493849,68.68015609751112L1310.693888667868,43.06595292204638L1312.9257841863507,59.68356666674771L1315.1576797048338,57.142241796405976L1317.3895752233168,93.15265243413664L1319.6214707417996,3.520199831296271L1321.8533662602827,60.57818975789925L1324.0852617787657,92.8524633388781L1326.3171572972485,106.06550691229016L1328.5490528157316,48.56255986438798L1330.7809483342146,100.48530337464828L1333.0128438526976,36.35035007726899L1335.2447393711805,91.10540785827126L1337.4766348896635,40.204891421557534L1339.7085304081465,62.958469101029145L1341.9404259266291,76.17161440882353L1344.1723214451122,61.7063804573732L1346.4042169635952,105.2229718248862L1348.6361124820783,104.46929445369682L1350.868008000561,64.27124957048032L1353.0999035190441,65.31930264365289L1355.3317990375272,48.10593235608838L1357.56369455601,75.02932623065672L1359.795590074493,54.904128985826L1362.027485592976,73.33076898344996L1364.2593811114589,103.60849077792496L1366.491276629942,78.90149669005292L1368.723172148425,105.56786591443262L1370.9550676669078,84.80927040528051L1373.1869631853908,111.09486237012136L1375.4188587038739,71.90711257075371L1377.650754222357,94.31038970493283L1379.8826497408395,89.7466143810453L1382.1145452593225,100.66986407765908L1384.3464407778056,56.899765162888976L1386.5783362962884,124.39193854332936L1388.8102318147714,107.82103541359587L1391.0421273332545,46.49200358148823L1393.2740228517375,50.00544407534259L1395.5059183702203,68.7344386572202L1397.7378138887034,90.35684627316421L1399.9697094071864,83.19371388056327L1402.2016049256692,121.78335271279124L1404.4335004441523,100.6500985405227L1406.6653959626353,107.78933788676173L1408.8972914811181,96.6177981633556L1411.1291869996012,71.52694571750885L1413.3610825180842,104.86130609574032L1415.592978036567,46.49185824665638L1417.8248735550499,62.32986688615999L1420.056769073533,68.64664188527844L1422.288664592016,65.58148668037349L1424.5205601104988,69.465865265648L1426.7524556289818,120.87240852001904L1428.9843511474648,55.338360396532096L1431.216246665948,91.66051424865616L1433.4481421844307,108.0629743082349L1435.6800377029138,95.14446630512104L1437.9119332213968,52.92956635938634L1440.1438287398796,74.54377709081201L1442.3757242583627,108.53757973523867L1444.6076197768457,92.24439693575427L1446.8395152953285,42.49535383858251L1449.0714108138116,78.35938323363857L1451.3033063322944,86.84587647145187L1453.5352018507774,92.2930550374694L1455.7670973692602,43.17847114889176L1457.9989928877433,69.304805204953L1460.2308884062263,78.19233537786991L1462.4627839247091,52.21745475011604L1464.6946794431922,67.69543994407407L1466.9265749616752,52.59157567435449L1469.158470480158,57.20102973590346L1471.390365998641,73.97189906082758L1473.6222615171241,89.04339726348638L1475.8541570356072,111.52906471386112L1478.08605255409,79.69259778045276L1480.317948072573,84.12677803474836L1482.549843591056,58.70982329311799L1484.7817391095389,92.73200983021178L1487.0136346280217,33.963298130973264L1489.2455301465047,115.22152865363144L1491.4774256649878,49.47196350794221L1493.7093211834706,111.99933916287472L1495.9412167019536,73.25193937063548L1498.1731122204367,89.19893460056973L1500.4050077389195,77.72437175268325L1502.6369032574025,93.83813870220558L1504.8687987758856,114.9016030882029" style="fill: none;" fill="none"></path></g></g></g></g></g></g><g transform="translate(50, 377)" clip-path="url(#clip_1)"><clipPath id="clip_1"><rect width="1657" height="22"></rect></clipPath><g><g><line x1="118.86168179796664" y1="0" x2="118.86168179796664" y2="5" style="visibility: inherit;" fill="rgb(0, 0, 0)" stroke="rgb(204, 204, 204)" stroke-width="1px"></line><line x1="342.05123364626274" y1="0" x2="342.05123364626274" y2="5" style="visibility: inherit;" fill="rgb(0, 0, 0)" stroke="rgb(204, 204, 204)" stroke-width="1px"></line><line x1="565.240785494559" y1="0" x2="565.240785494559" y2="5" style="visibility: inherit;" fill="rgb(0, 0, 0)" stroke="rgb(204, 204, 204)" stroke-width="1px"></line><line x1="788.430337342855" y1="0" x2="788.430337342855" y2="5" style="visibility: inherit;" fill="rgb(0, 0, 0)" stroke="rgb(204, 204, 204)" stroke-width="1px"></line><line x1="1011.6198891911512" y1="0" x2="1011.6198891911512" y2="5" style="visibility: inherit;" fill="rgb(0, 0, 0)" stroke="rgb(204, 204, 204)" stroke-width="1px"></line><line x1="1234.8094410394472" y1="0" x2="1234.8094410394472" y2="5" style="visibility: inherit;" fill="rgb(0, 0, 0)" stroke="rgb(204, 204, 204)" stroke-width="1px"></line><line x1="1457.9989928877433" y1="0" x2="1457.9989928877433" y2="5" style="visibility: inherit;" fill="rgb(0, 0, 0)" stroke="rgb(204, 204, 204)" stroke-width="1px"></line></g><g transform="translate(0, 8)"><text x="118.86168179796664" y="0" dx="0em" dy="0.95em" style="text-anchor: middle; visibility: inherit; font-family: Roboto, sans-serif; font-size: 12px; font-weight: 200;" fill="rgb(33, 33, 33)" stroke="none" stroke-width="1px">0</text><text x="342.05123364626274" y="0" dx="0em" dy="0.95em" style="text-anchor: middle; visibility: inherit; font-family: Roboto, sans-serif; font-size: 12px; font-weight: 200;" fill="rgb(33, 33, 33)" stroke="none" stroke-width="1px">100k</text><text x="565.240785494559" y="0" dx="0em" dy="0.95em" style="text-anchor: middle; visibility: inherit; font-family: Roboto, sans-serif; font-size: 12px; font-weight: 200;" fill="rgb(33, 33, 33)" stroke="none" stroke-width="1px">200k</text><text x="788.430337342855" y="0" dx="0em" dy="0.95em" style="text-anchor: middle; visibility: inherit; font-family: Roboto, sans-serif; font-size: 12px; font-weight: 200;" fill="rgb(33, 33, 33)" stroke="none" stroke-width="1px">300k</text><text x="1011.6198891911512" y="0" dx="0em" dy="0.95em" style="text-anchor: middle; visibility: inherit; font-family: Roboto, sans-serif; font-size: 12px; font-weight: 200;" fill="rgb(33, 33, 33)" stroke="none" stroke-width="1px">400k</text><text x="1234.8094410394472" y="0" dx="0em" dy="0.95em" style="text-anchor: middle; visibility: inherit; font-family: Roboto, sans-serif; font-size: 12px; font-weight: 200;" fill="rgb(33, 33, 33)" stroke="none" stroke-width="1px">500k</text><text x="1457.9989928877433" y="0" dx="0em" dy="0.95em" style="text-anchor: middle; visibility: inherit; font-family: Roboto, sans-serif; font-size: 12px; font-weight: 200;" fill="rgb(33, 33, 33)" stroke="none" stroke-width="1px">600k</text></g><line x1="0" y1="0" x2="1657.22" y2="0" fill="rgb(0, 0, 0)" stroke="rgb(204, 204, 204)" stroke-width="1px"></line></g></g></g></g></svg>